G04 #@! TF.GenerationSoftware,KiCad,Pcbnew,(5.0.2)-1*
G04 #@! TF.CreationDate,2020-02-13T19:07:28+01:00*
G04 #@! TF.ProjectId,Project-ESD,50726f6a-6563-4742-9d45-53442e6b6963,rev?*
G04 #@! TF.SameCoordinates,Original*
G04 #@! TF.FileFunction,Soldermask,Top*
G04 #@! TF.FilePolarity,Negative*
%FSLAX46Y46*%
G04 Gerber Fmt 4.6, Leading zero omitted, Abs format (unit mm)*
G04 Created by KiCad (PCBNEW (5.0.2)-1) date 2020-02-13 19:07:28*
%MOMM*%
%LPD*%
G01*
G04 APERTURE LIST*
%ADD10C,0.100000*%
G04 APERTURE END LIST*
D10*
G36*
X163300562Y-133778181D02*
X163335477Y-133788773D01*
X163367665Y-133805978D01*
X163395873Y-133829127D01*
X163419022Y-133857335D01*
X163436227Y-133889523D01*
X163446819Y-133924438D01*
X163451000Y-133966895D01*
X163451000Y-135433105D01*
X163446819Y-135475562D01*
X163436227Y-135510477D01*
X163419022Y-135542665D01*
X163395873Y-135570873D01*
X163367665Y-135594022D01*
X163335477Y-135611227D01*
X163300562Y-135621819D01*
X163258105Y-135626000D01*
X162116895Y-135626000D01*
X162074438Y-135621819D01*
X162039523Y-135611227D01*
X162007335Y-135594022D01*
X161979127Y-135570873D01*
X161955978Y-135542665D01*
X161938773Y-135510477D01*
X161928181Y-135475562D01*
X161924000Y-135433105D01*
X161924000Y-133966895D01*
X161928181Y-133924438D01*
X161938773Y-133889523D01*
X161955978Y-133857335D01*
X161979127Y-133829127D01*
X162007335Y-133805978D01*
X162039523Y-133788773D01*
X162074438Y-133778181D01*
X162116895Y-133774000D01*
X163258105Y-133774000D01*
X163300562Y-133778181D01*
X163300562Y-133778181D01*
G37*
G36*
X173325562Y-133778181D02*
X173360477Y-133788773D01*
X173392665Y-133805978D01*
X173420873Y-133829127D01*
X173444022Y-133857335D01*
X173461227Y-133889523D01*
X173471819Y-133924438D01*
X173476000Y-133966895D01*
X173476000Y-135433105D01*
X173471819Y-135475562D01*
X173461227Y-135510477D01*
X173444022Y-135542665D01*
X173420873Y-135570873D01*
X173392665Y-135594022D01*
X173360477Y-135611227D01*
X173325562Y-135621819D01*
X173283105Y-135626000D01*
X172141895Y-135626000D01*
X172099438Y-135621819D01*
X172064523Y-135611227D01*
X172032335Y-135594022D01*
X172004127Y-135570873D01*
X171980978Y-135542665D01*
X171963773Y-135510477D01*
X171953181Y-135475562D01*
X171949000Y-135433105D01*
X171949000Y-133966895D01*
X171953181Y-133924438D01*
X171963773Y-133889523D01*
X171980978Y-133857335D01*
X172004127Y-133829127D01*
X172032335Y-133805978D01*
X172064523Y-133788773D01*
X172099438Y-133778181D01*
X172141895Y-133774000D01*
X173283105Y-133774000D01*
X173325562Y-133778181D01*
X173325562Y-133778181D01*
G37*
G36*
X176300562Y-133778181D02*
X176335477Y-133788773D01*
X176367665Y-133805978D01*
X176395873Y-133829127D01*
X176419022Y-133857335D01*
X176436227Y-133889523D01*
X176446819Y-133924438D01*
X176451000Y-133966895D01*
X176451000Y-135433105D01*
X176446819Y-135475562D01*
X176436227Y-135510477D01*
X176419022Y-135542665D01*
X176395873Y-135570873D01*
X176367665Y-135594022D01*
X176335477Y-135611227D01*
X176300562Y-135621819D01*
X176258105Y-135626000D01*
X175116895Y-135626000D01*
X175074438Y-135621819D01*
X175039523Y-135611227D01*
X175007335Y-135594022D01*
X174979127Y-135570873D01*
X174955978Y-135542665D01*
X174938773Y-135510477D01*
X174928181Y-135475562D01*
X174924000Y-135433105D01*
X174924000Y-133966895D01*
X174928181Y-133924438D01*
X174938773Y-133889523D01*
X174955978Y-133857335D01*
X174979127Y-133829127D01*
X175007335Y-133805978D01*
X175039523Y-133788773D01*
X175074438Y-133778181D01*
X175116895Y-133774000D01*
X176258105Y-133774000D01*
X176300562Y-133778181D01*
X176300562Y-133778181D01*
G37*
G36*
X147325562Y-133778181D02*
X147360477Y-133788773D01*
X147392665Y-133805978D01*
X147420873Y-133829127D01*
X147444022Y-133857335D01*
X147461227Y-133889523D01*
X147471819Y-133924438D01*
X147476000Y-133966895D01*
X147476000Y-135433105D01*
X147471819Y-135475562D01*
X147461227Y-135510477D01*
X147444022Y-135542665D01*
X147420873Y-135570873D01*
X147392665Y-135594022D01*
X147360477Y-135611227D01*
X147325562Y-135621819D01*
X147283105Y-135626000D01*
X146141895Y-135626000D01*
X146099438Y-135621819D01*
X146064523Y-135611227D01*
X146032335Y-135594022D01*
X146004127Y-135570873D01*
X145980978Y-135542665D01*
X145963773Y-135510477D01*
X145953181Y-135475562D01*
X145949000Y-135433105D01*
X145949000Y-133966895D01*
X145953181Y-133924438D01*
X145963773Y-133889523D01*
X145980978Y-133857335D01*
X146004127Y-133829127D01*
X146032335Y-133805978D01*
X146064523Y-133788773D01*
X146099438Y-133778181D01*
X146141895Y-133774000D01*
X147283105Y-133774000D01*
X147325562Y-133778181D01*
X147325562Y-133778181D01*
G37*
G36*
X160325562Y-133778181D02*
X160360477Y-133788773D01*
X160392665Y-133805978D01*
X160420873Y-133829127D01*
X160444022Y-133857335D01*
X160461227Y-133889523D01*
X160471819Y-133924438D01*
X160476000Y-133966895D01*
X160476000Y-135433105D01*
X160471819Y-135475562D01*
X160461227Y-135510477D01*
X160444022Y-135542665D01*
X160420873Y-135570873D01*
X160392665Y-135594022D01*
X160360477Y-135611227D01*
X160325562Y-135621819D01*
X160283105Y-135626000D01*
X159141895Y-135626000D01*
X159099438Y-135621819D01*
X159064523Y-135611227D01*
X159032335Y-135594022D01*
X159004127Y-135570873D01*
X158980978Y-135542665D01*
X158963773Y-135510477D01*
X158953181Y-135475562D01*
X158949000Y-135433105D01*
X158949000Y-133966895D01*
X158953181Y-133924438D01*
X158963773Y-133889523D01*
X158980978Y-133857335D01*
X159004127Y-133829127D01*
X159032335Y-133805978D01*
X159064523Y-133788773D01*
X159099438Y-133778181D01*
X159141895Y-133774000D01*
X160283105Y-133774000D01*
X160325562Y-133778181D01*
X160325562Y-133778181D01*
G37*
G36*
X150300562Y-133778181D02*
X150335477Y-133788773D01*
X150367665Y-133805978D01*
X150395873Y-133829127D01*
X150419022Y-133857335D01*
X150436227Y-133889523D01*
X150446819Y-133924438D01*
X150451000Y-133966895D01*
X150451000Y-135433105D01*
X150446819Y-135475562D01*
X150436227Y-135510477D01*
X150419022Y-135542665D01*
X150395873Y-135570873D01*
X150367665Y-135594022D01*
X150335477Y-135611227D01*
X150300562Y-135621819D01*
X150258105Y-135626000D01*
X149116895Y-135626000D01*
X149074438Y-135621819D01*
X149039523Y-135611227D01*
X149007335Y-135594022D01*
X148979127Y-135570873D01*
X148955978Y-135542665D01*
X148938773Y-135510477D01*
X148928181Y-135475562D01*
X148924000Y-135433105D01*
X148924000Y-133966895D01*
X148928181Y-133924438D01*
X148938773Y-133889523D01*
X148955978Y-133857335D01*
X148979127Y-133829127D01*
X149007335Y-133805978D01*
X149039523Y-133788773D01*
X149074438Y-133778181D01*
X149116895Y-133774000D01*
X150258105Y-133774000D01*
X150300562Y-133778181D01*
X150300562Y-133778181D01*
G37*
G36*
X171451000Y-132951000D02*
X169749000Y-132951000D01*
X169749000Y-131449000D01*
X171451000Y-131449000D01*
X171451000Y-132951000D01*
X171451000Y-132951000D01*
G37*
G36*
X178651000Y-132951000D02*
X176949000Y-132951000D01*
X176949000Y-131449000D01*
X178651000Y-131449000D01*
X178651000Y-132951000D01*
X178651000Y-132951000D01*
G37*
G36*
X165651000Y-132951000D02*
X163949000Y-132951000D01*
X163949000Y-131449000D01*
X165651000Y-131449000D01*
X165651000Y-132951000D01*
X165651000Y-132951000D01*
G37*
G36*
X158451000Y-132951000D02*
X156749000Y-132951000D01*
X156749000Y-131449000D01*
X158451000Y-131449000D01*
X158451000Y-132951000D01*
X158451000Y-132951000D01*
G37*
G36*
X145451000Y-132951000D02*
X143749000Y-132951000D01*
X143749000Y-131449000D01*
X145451000Y-131449000D01*
X145451000Y-132951000D01*
X145451000Y-132951000D01*
G37*
G36*
X152651000Y-132951000D02*
X150949000Y-132951000D01*
X150949000Y-131449000D01*
X152651000Y-131449000D01*
X152651000Y-132951000D01*
X152651000Y-132951000D01*
G37*
G36*
X171451000Y-129951000D02*
X169749000Y-129951000D01*
X169749000Y-128449000D01*
X171451000Y-128449000D01*
X171451000Y-129951000D01*
X171451000Y-129951000D01*
G37*
G36*
X152651000Y-129951000D02*
X150949000Y-129951000D01*
X150949000Y-128449000D01*
X152651000Y-128449000D01*
X152651000Y-129951000D01*
X152651000Y-129951000D01*
G37*
G36*
X165651000Y-129951000D02*
X163949000Y-129951000D01*
X163949000Y-128449000D01*
X165651000Y-128449000D01*
X165651000Y-129951000D01*
X165651000Y-129951000D01*
G37*
G36*
X178651000Y-129951000D02*
X176949000Y-129951000D01*
X176949000Y-128449000D01*
X178651000Y-128449000D01*
X178651000Y-129951000D01*
X178651000Y-129951000D01*
G37*
G36*
X158451000Y-129951000D02*
X156749000Y-129951000D01*
X156749000Y-128449000D01*
X158451000Y-128449000D01*
X158451000Y-129951000D01*
X158451000Y-129951000D01*
G37*
G36*
X145451000Y-129951000D02*
X143749000Y-129951000D01*
X143749000Y-128449000D01*
X145451000Y-128449000D01*
X145451000Y-129951000D01*
X145451000Y-129951000D01*
G37*
G36*
X147325562Y-120778181D02*
X147360477Y-120788773D01*
X147392665Y-120805978D01*
X147420873Y-120829127D01*
X147444022Y-120857335D01*
X147461227Y-120889523D01*
X147471819Y-120924438D01*
X147476000Y-120966895D01*
X147476000Y-122433105D01*
X147471819Y-122475562D01*
X147461227Y-122510477D01*
X147444022Y-122542665D01*
X147420873Y-122570873D01*
X147392665Y-122594022D01*
X147360477Y-122611227D01*
X147325562Y-122621819D01*
X147283105Y-122626000D01*
X146141895Y-122626000D01*
X146099438Y-122621819D01*
X146064523Y-122611227D01*
X146032335Y-122594022D01*
X146004127Y-122570873D01*
X145980978Y-122542665D01*
X145963773Y-122510477D01*
X145953181Y-122475562D01*
X145949000Y-122433105D01*
X145949000Y-120966895D01*
X145953181Y-120924438D01*
X145963773Y-120889523D01*
X145980978Y-120857335D01*
X146004127Y-120829127D01*
X146032335Y-120805978D01*
X146064523Y-120788773D01*
X146099438Y-120778181D01*
X146141895Y-120774000D01*
X147283105Y-120774000D01*
X147325562Y-120778181D01*
X147325562Y-120778181D01*
G37*
G36*
X173325562Y-120778181D02*
X173360477Y-120788773D01*
X173392665Y-120805978D01*
X173420873Y-120829127D01*
X173444022Y-120857335D01*
X173461227Y-120889523D01*
X173471819Y-120924438D01*
X173476000Y-120966895D01*
X173476000Y-122433105D01*
X173471819Y-122475562D01*
X173461227Y-122510477D01*
X173444022Y-122542665D01*
X173420873Y-122570873D01*
X173392665Y-122594022D01*
X173360477Y-122611227D01*
X173325562Y-122621819D01*
X173283105Y-122626000D01*
X172141895Y-122626000D01*
X172099438Y-122621819D01*
X172064523Y-122611227D01*
X172032335Y-122594022D01*
X172004127Y-122570873D01*
X171980978Y-122542665D01*
X171963773Y-122510477D01*
X171953181Y-122475562D01*
X171949000Y-122433105D01*
X171949000Y-120966895D01*
X171953181Y-120924438D01*
X171963773Y-120889523D01*
X171980978Y-120857335D01*
X172004127Y-120829127D01*
X172032335Y-120805978D01*
X172064523Y-120788773D01*
X172099438Y-120778181D01*
X172141895Y-120774000D01*
X173283105Y-120774000D01*
X173325562Y-120778181D01*
X173325562Y-120778181D01*
G37*
G36*
X150300562Y-120778181D02*
X150335477Y-120788773D01*
X150367665Y-120805978D01*
X150395873Y-120829127D01*
X150419022Y-120857335D01*
X150436227Y-120889523D01*
X150446819Y-120924438D01*
X150451000Y-120966895D01*
X150451000Y-122433105D01*
X150446819Y-122475562D01*
X150436227Y-122510477D01*
X150419022Y-122542665D01*
X150395873Y-122570873D01*
X150367665Y-122594022D01*
X150335477Y-122611227D01*
X150300562Y-122621819D01*
X150258105Y-122626000D01*
X149116895Y-122626000D01*
X149074438Y-122621819D01*
X149039523Y-122611227D01*
X149007335Y-122594022D01*
X148979127Y-122570873D01*
X148955978Y-122542665D01*
X148938773Y-122510477D01*
X148928181Y-122475562D01*
X148924000Y-122433105D01*
X148924000Y-120966895D01*
X148928181Y-120924438D01*
X148938773Y-120889523D01*
X148955978Y-120857335D01*
X148979127Y-120829127D01*
X149007335Y-120805978D01*
X149039523Y-120788773D01*
X149074438Y-120778181D01*
X149116895Y-120774000D01*
X150258105Y-120774000D01*
X150300562Y-120778181D01*
X150300562Y-120778181D01*
G37*
G36*
X163300562Y-120778181D02*
X163335477Y-120788773D01*
X163367665Y-120805978D01*
X163395873Y-120829127D01*
X163419022Y-120857335D01*
X163436227Y-120889523D01*
X163446819Y-120924438D01*
X163451000Y-120966895D01*
X163451000Y-122433105D01*
X163446819Y-122475562D01*
X163436227Y-122510477D01*
X163419022Y-122542665D01*
X163395873Y-122570873D01*
X163367665Y-122594022D01*
X163335477Y-122611227D01*
X163300562Y-122621819D01*
X163258105Y-122626000D01*
X162116895Y-122626000D01*
X162074438Y-122621819D01*
X162039523Y-122611227D01*
X162007335Y-122594022D01*
X161979127Y-122570873D01*
X161955978Y-122542665D01*
X161938773Y-122510477D01*
X161928181Y-122475562D01*
X161924000Y-122433105D01*
X161924000Y-120966895D01*
X161928181Y-120924438D01*
X161938773Y-120889523D01*
X161955978Y-120857335D01*
X161979127Y-120829127D01*
X162007335Y-120805978D01*
X162039523Y-120788773D01*
X162074438Y-120778181D01*
X162116895Y-120774000D01*
X163258105Y-120774000D01*
X163300562Y-120778181D01*
X163300562Y-120778181D01*
G37*
G36*
X160325562Y-120778181D02*
X160360477Y-120788773D01*
X160392665Y-120805978D01*
X160420873Y-120829127D01*
X160444022Y-120857335D01*
X160461227Y-120889523D01*
X160471819Y-120924438D01*
X160476000Y-120966895D01*
X160476000Y-122433105D01*
X160471819Y-122475562D01*
X160461227Y-122510477D01*
X160444022Y-122542665D01*
X160420873Y-122570873D01*
X160392665Y-122594022D01*
X160360477Y-122611227D01*
X160325562Y-122621819D01*
X160283105Y-122626000D01*
X159141895Y-122626000D01*
X159099438Y-122621819D01*
X159064523Y-122611227D01*
X159032335Y-122594022D01*
X159004127Y-122570873D01*
X158980978Y-122542665D01*
X158963773Y-122510477D01*
X158953181Y-122475562D01*
X158949000Y-122433105D01*
X158949000Y-120966895D01*
X158953181Y-120924438D01*
X158963773Y-120889523D01*
X158980978Y-120857335D01*
X159004127Y-120829127D01*
X159032335Y-120805978D01*
X159064523Y-120788773D01*
X159099438Y-120778181D01*
X159141895Y-120774000D01*
X160283105Y-120774000D01*
X160325562Y-120778181D01*
X160325562Y-120778181D01*
G37*
G36*
X176300562Y-120778181D02*
X176335477Y-120788773D01*
X176367665Y-120805978D01*
X176395873Y-120829127D01*
X176419022Y-120857335D01*
X176436227Y-120889523D01*
X176446819Y-120924438D01*
X176451000Y-120966895D01*
X176451000Y-122433105D01*
X176446819Y-122475562D01*
X176436227Y-122510477D01*
X176419022Y-122542665D01*
X176395873Y-122570873D01*
X176367665Y-122594022D01*
X176335477Y-122611227D01*
X176300562Y-122621819D01*
X176258105Y-122626000D01*
X175116895Y-122626000D01*
X175074438Y-122621819D01*
X175039523Y-122611227D01*
X175007335Y-122594022D01*
X174979127Y-122570873D01*
X174955978Y-122542665D01*
X174938773Y-122510477D01*
X174928181Y-122475562D01*
X174924000Y-122433105D01*
X174924000Y-120966895D01*
X174928181Y-120924438D01*
X174938773Y-120889523D01*
X174955978Y-120857335D01*
X174979127Y-120829127D01*
X175007335Y-120805978D01*
X175039523Y-120788773D01*
X175074438Y-120778181D01*
X175116895Y-120774000D01*
X176258105Y-120774000D01*
X176300562Y-120778181D01*
X176300562Y-120778181D01*
G37*
G36*
X178651000Y-119951000D02*
X176949000Y-119951000D01*
X176949000Y-118449000D01*
X178651000Y-118449000D01*
X178651000Y-119951000D01*
X178651000Y-119951000D01*
G37*
G36*
X145451000Y-119951000D02*
X143749000Y-119951000D01*
X143749000Y-118449000D01*
X145451000Y-118449000D01*
X145451000Y-119951000D01*
X145451000Y-119951000D01*
G37*
G36*
X152651000Y-119951000D02*
X150949000Y-119951000D01*
X150949000Y-118449000D01*
X152651000Y-118449000D01*
X152651000Y-119951000D01*
X152651000Y-119951000D01*
G37*
G36*
X165651000Y-119951000D02*
X163949000Y-119951000D01*
X163949000Y-118449000D01*
X165651000Y-118449000D01*
X165651000Y-119951000D01*
X165651000Y-119951000D01*
G37*
G36*
X171451000Y-119951000D02*
X169749000Y-119951000D01*
X169749000Y-118449000D01*
X171451000Y-118449000D01*
X171451000Y-119951000D01*
X171451000Y-119951000D01*
G37*
G36*
X158451000Y-119951000D02*
X156749000Y-119951000D01*
X156749000Y-118449000D01*
X158451000Y-118449000D01*
X158451000Y-119951000D01*
X158451000Y-119951000D01*
G37*
G36*
X145451000Y-116951000D02*
X143749000Y-116951000D01*
X143749000Y-115449000D01*
X145451000Y-115449000D01*
X145451000Y-116951000D01*
X145451000Y-116951000D01*
G37*
G36*
X152651000Y-116951000D02*
X150949000Y-116951000D01*
X150949000Y-115449000D01*
X152651000Y-115449000D01*
X152651000Y-116951000D01*
X152651000Y-116951000D01*
G37*
G36*
X165651000Y-116951000D02*
X163949000Y-116951000D01*
X163949000Y-115449000D01*
X165651000Y-115449000D01*
X165651000Y-116951000D01*
X165651000Y-116951000D01*
G37*
G36*
X158451000Y-116951000D02*
X156749000Y-116951000D01*
X156749000Y-115449000D01*
X158451000Y-115449000D01*
X158451000Y-116951000D01*
X158451000Y-116951000D01*
G37*
G36*
X171451000Y-116951000D02*
X169749000Y-116951000D01*
X169749000Y-115449000D01*
X171451000Y-115449000D01*
X171451000Y-116951000D01*
X171451000Y-116951000D01*
G37*
G36*
X178651000Y-116951000D02*
X176949000Y-116951000D01*
X176949000Y-115449000D01*
X178651000Y-115449000D01*
X178651000Y-116951000D01*
X178651000Y-116951000D01*
G37*
G36*
X173325562Y-107778181D02*
X173360477Y-107788773D01*
X173392665Y-107805978D01*
X173420873Y-107829127D01*
X173444022Y-107857335D01*
X173461227Y-107889523D01*
X173471819Y-107924438D01*
X173476000Y-107966895D01*
X173476000Y-109433105D01*
X173471819Y-109475562D01*
X173461227Y-109510477D01*
X173444022Y-109542665D01*
X173420873Y-109570873D01*
X173392665Y-109594022D01*
X173360477Y-109611227D01*
X173325562Y-109621819D01*
X173283105Y-109626000D01*
X172141895Y-109626000D01*
X172099438Y-109621819D01*
X172064523Y-109611227D01*
X172032335Y-109594022D01*
X172004127Y-109570873D01*
X171980978Y-109542665D01*
X171963773Y-109510477D01*
X171953181Y-109475562D01*
X171949000Y-109433105D01*
X171949000Y-107966895D01*
X171953181Y-107924438D01*
X171963773Y-107889523D01*
X171980978Y-107857335D01*
X172004127Y-107829127D01*
X172032335Y-107805978D01*
X172064523Y-107788773D01*
X172099438Y-107778181D01*
X172141895Y-107774000D01*
X173283105Y-107774000D01*
X173325562Y-107778181D01*
X173325562Y-107778181D01*
G37*
G36*
X176300562Y-107778181D02*
X176335477Y-107788773D01*
X176367665Y-107805978D01*
X176395873Y-107829127D01*
X176419022Y-107857335D01*
X176436227Y-107889523D01*
X176446819Y-107924438D01*
X176451000Y-107966895D01*
X176451000Y-109433105D01*
X176446819Y-109475562D01*
X176436227Y-109510477D01*
X176419022Y-109542665D01*
X176395873Y-109570873D01*
X176367665Y-109594022D01*
X176335477Y-109611227D01*
X176300562Y-109621819D01*
X176258105Y-109626000D01*
X175116895Y-109626000D01*
X175074438Y-109621819D01*
X175039523Y-109611227D01*
X175007335Y-109594022D01*
X174979127Y-109570873D01*
X174955978Y-109542665D01*
X174938773Y-109510477D01*
X174928181Y-109475562D01*
X174924000Y-109433105D01*
X174924000Y-107966895D01*
X174928181Y-107924438D01*
X174938773Y-107889523D01*
X174955978Y-107857335D01*
X174979127Y-107829127D01*
X175007335Y-107805978D01*
X175039523Y-107788773D01*
X175074438Y-107778181D01*
X175116895Y-107774000D01*
X176258105Y-107774000D01*
X176300562Y-107778181D01*
X176300562Y-107778181D01*
G37*
G36*
X147325562Y-107778181D02*
X147360477Y-107788773D01*
X147392665Y-107805978D01*
X147420873Y-107829127D01*
X147444022Y-107857335D01*
X147461227Y-107889523D01*
X147471819Y-107924438D01*
X147476000Y-107966895D01*
X147476000Y-109433105D01*
X147471819Y-109475562D01*
X147461227Y-109510477D01*
X147444022Y-109542665D01*
X147420873Y-109570873D01*
X147392665Y-109594022D01*
X147360477Y-109611227D01*
X147325562Y-109621819D01*
X147283105Y-109626000D01*
X146141895Y-109626000D01*
X146099438Y-109621819D01*
X146064523Y-109611227D01*
X146032335Y-109594022D01*
X146004127Y-109570873D01*
X145980978Y-109542665D01*
X145963773Y-109510477D01*
X145953181Y-109475562D01*
X145949000Y-109433105D01*
X145949000Y-107966895D01*
X145953181Y-107924438D01*
X145963773Y-107889523D01*
X145980978Y-107857335D01*
X146004127Y-107829127D01*
X146032335Y-107805978D01*
X146064523Y-107788773D01*
X146099438Y-107778181D01*
X146141895Y-107774000D01*
X147283105Y-107774000D01*
X147325562Y-107778181D01*
X147325562Y-107778181D01*
G37*
G36*
X150300562Y-107778181D02*
X150335477Y-107788773D01*
X150367665Y-107805978D01*
X150395873Y-107829127D01*
X150419022Y-107857335D01*
X150436227Y-107889523D01*
X150446819Y-107924438D01*
X150451000Y-107966895D01*
X150451000Y-109433105D01*
X150446819Y-109475562D01*
X150436227Y-109510477D01*
X150419022Y-109542665D01*
X150395873Y-109570873D01*
X150367665Y-109594022D01*
X150335477Y-109611227D01*
X150300562Y-109621819D01*
X150258105Y-109626000D01*
X149116895Y-109626000D01*
X149074438Y-109621819D01*
X149039523Y-109611227D01*
X149007335Y-109594022D01*
X148979127Y-109570873D01*
X148955978Y-109542665D01*
X148938773Y-109510477D01*
X148928181Y-109475562D01*
X148924000Y-109433105D01*
X148924000Y-107966895D01*
X148928181Y-107924438D01*
X148938773Y-107889523D01*
X148955978Y-107857335D01*
X148979127Y-107829127D01*
X149007335Y-107805978D01*
X149039523Y-107788773D01*
X149074438Y-107778181D01*
X149116895Y-107774000D01*
X150258105Y-107774000D01*
X150300562Y-107778181D01*
X150300562Y-107778181D01*
G37*
G36*
X160325562Y-107778181D02*
X160360477Y-107788773D01*
X160392665Y-107805978D01*
X160420873Y-107829127D01*
X160444022Y-107857335D01*
X160461227Y-107889523D01*
X160471819Y-107924438D01*
X160476000Y-107966895D01*
X160476000Y-109433105D01*
X160471819Y-109475562D01*
X160461227Y-109510477D01*
X160444022Y-109542665D01*
X160420873Y-109570873D01*
X160392665Y-109594022D01*
X160360477Y-109611227D01*
X160325562Y-109621819D01*
X160283105Y-109626000D01*
X159141895Y-109626000D01*
X159099438Y-109621819D01*
X159064523Y-109611227D01*
X159032335Y-109594022D01*
X159004127Y-109570873D01*
X158980978Y-109542665D01*
X158963773Y-109510477D01*
X158953181Y-109475562D01*
X158949000Y-109433105D01*
X158949000Y-107966895D01*
X158953181Y-107924438D01*
X158963773Y-107889523D01*
X158980978Y-107857335D01*
X159004127Y-107829127D01*
X159032335Y-107805978D01*
X159064523Y-107788773D01*
X159099438Y-107778181D01*
X159141895Y-107774000D01*
X160283105Y-107774000D01*
X160325562Y-107778181D01*
X160325562Y-107778181D01*
G37*
G36*
X163300562Y-107778181D02*
X163335477Y-107788773D01*
X163367665Y-107805978D01*
X163395873Y-107829127D01*
X163419022Y-107857335D01*
X163436227Y-107889523D01*
X163446819Y-107924438D01*
X163451000Y-107966895D01*
X163451000Y-109433105D01*
X163446819Y-109475562D01*
X163436227Y-109510477D01*
X163419022Y-109542665D01*
X163395873Y-109570873D01*
X163367665Y-109594022D01*
X163335477Y-109611227D01*
X163300562Y-109621819D01*
X163258105Y-109626000D01*
X162116895Y-109626000D01*
X162074438Y-109621819D01*
X162039523Y-109611227D01*
X162007335Y-109594022D01*
X161979127Y-109570873D01*
X161955978Y-109542665D01*
X161938773Y-109510477D01*
X161928181Y-109475562D01*
X161924000Y-109433105D01*
X161924000Y-107966895D01*
X161928181Y-107924438D01*
X161938773Y-107889523D01*
X161955978Y-107857335D01*
X161979127Y-107829127D01*
X162007335Y-107805978D01*
X162039523Y-107788773D01*
X162074438Y-107778181D01*
X162116895Y-107774000D01*
X163258105Y-107774000D01*
X163300562Y-107778181D01*
X163300562Y-107778181D01*
G37*
G36*
X145451000Y-106951000D02*
X143749000Y-106951000D01*
X143749000Y-105449000D01*
X145451000Y-105449000D01*
X145451000Y-106951000D01*
X145451000Y-106951000D01*
G37*
G36*
X158451000Y-106951000D02*
X156749000Y-106951000D01*
X156749000Y-105449000D01*
X158451000Y-105449000D01*
X158451000Y-106951000D01*
X158451000Y-106951000D01*
G37*
G36*
X165651000Y-106951000D02*
X163949000Y-106951000D01*
X163949000Y-105449000D01*
X165651000Y-105449000D01*
X165651000Y-106951000D01*
X165651000Y-106951000D01*
G37*
G36*
X171451000Y-106951000D02*
X169749000Y-106951000D01*
X169749000Y-105449000D01*
X171451000Y-105449000D01*
X171451000Y-106951000D01*
X171451000Y-106951000D01*
G37*
G36*
X152651000Y-106951000D02*
X150949000Y-106951000D01*
X150949000Y-105449000D01*
X152651000Y-105449000D01*
X152651000Y-106951000D01*
X152651000Y-106951000D01*
G37*
G36*
X178651000Y-106951000D02*
X176949000Y-106951000D01*
X176949000Y-105449000D01*
X178651000Y-105449000D01*
X178651000Y-106951000D01*
X178651000Y-106951000D01*
G37*
G36*
X171451000Y-103951000D02*
X169749000Y-103951000D01*
X169749000Y-102449000D01*
X171451000Y-102449000D01*
X171451000Y-103951000D01*
X171451000Y-103951000D01*
G37*
G36*
X145451000Y-103951000D02*
X143749000Y-103951000D01*
X143749000Y-102449000D01*
X145451000Y-102449000D01*
X145451000Y-103951000D01*
X145451000Y-103951000D01*
G37*
G36*
X152651000Y-103951000D02*
X150949000Y-103951000D01*
X150949000Y-102449000D01*
X152651000Y-102449000D01*
X152651000Y-103951000D01*
X152651000Y-103951000D01*
G37*
G36*
X158451000Y-103951000D02*
X156749000Y-103951000D01*
X156749000Y-102449000D01*
X158451000Y-102449000D01*
X158451000Y-103951000D01*
X158451000Y-103951000D01*
G37*
G36*
X165651000Y-103951000D02*
X163949000Y-103951000D01*
X163949000Y-102449000D01*
X165651000Y-102449000D01*
X165651000Y-103951000D01*
X165651000Y-103951000D01*
G37*
G36*
X178651000Y-103951000D02*
X176949000Y-103951000D01*
X176949000Y-102449000D01*
X178651000Y-102449000D01*
X178651000Y-103951000D01*
X178651000Y-103951000D01*
G37*
G36*
X160325562Y-94778181D02*
X160360477Y-94788773D01*
X160392665Y-94805978D01*
X160420873Y-94829127D01*
X160444022Y-94857335D01*
X160461227Y-94889523D01*
X160471819Y-94924438D01*
X160476000Y-94966895D01*
X160476000Y-96433105D01*
X160471819Y-96475562D01*
X160461227Y-96510477D01*
X160444022Y-96542665D01*
X160420873Y-96570873D01*
X160392665Y-96594022D01*
X160360477Y-96611227D01*
X160325562Y-96621819D01*
X160283105Y-96626000D01*
X159141895Y-96626000D01*
X159099438Y-96621819D01*
X159064523Y-96611227D01*
X159032335Y-96594022D01*
X159004127Y-96570873D01*
X158980978Y-96542665D01*
X158963773Y-96510477D01*
X158953181Y-96475562D01*
X158949000Y-96433105D01*
X158949000Y-94966895D01*
X158953181Y-94924438D01*
X158963773Y-94889523D01*
X158980978Y-94857335D01*
X159004127Y-94829127D01*
X159032335Y-94805978D01*
X159064523Y-94788773D01*
X159099438Y-94778181D01*
X159141895Y-94774000D01*
X160283105Y-94774000D01*
X160325562Y-94778181D01*
X160325562Y-94778181D01*
G37*
G36*
X163300562Y-94778181D02*
X163335477Y-94788773D01*
X163367665Y-94805978D01*
X163395873Y-94829127D01*
X163419022Y-94857335D01*
X163436227Y-94889523D01*
X163446819Y-94924438D01*
X163451000Y-94966895D01*
X163451000Y-96433105D01*
X163446819Y-96475562D01*
X163436227Y-96510477D01*
X163419022Y-96542665D01*
X163395873Y-96570873D01*
X163367665Y-96594022D01*
X163335477Y-96611227D01*
X163300562Y-96621819D01*
X163258105Y-96626000D01*
X162116895Y-96626000D01*
X162074438Y-96621819D01*
X162039523Y-96611227D01*
X162007335Y-96594022D01*
X161979127Y-96570873D01*
X161955978Y-96542665D01*
X161938773Y-96510477D01*
X161928181Y-96475562D01*
X161924000Y-96433105D01*
X161924000Y-94966895D01*
X161928181Y-94924438D01*
X161938773Y-94889523D01*
X161955978Y-94857335D01*
X161979127Y-94829127D01*
X162007335Y-94805978D01*
X162039523Y-94788773D01*
X162074438Y-94778181D01*
X162116895Y-94774000D01*
X163258105Y-94774000D01*
X163300562Y-94778181D01*
X163300562Y-94778181D01*
G37*
G36*
X173325562Y-94778181D02*
X173360477Y-94788773D01*
X173392665Y-94805978D01*
X173420873Y-94829127D01*
X173444022Y-94857335D01*
X173461227Y-94889523D01*
X173471819Y-94924438D01*
X173476000Y-94966895D01*
X173476000Y-96433105D01*
X173471819Y-96475562D01*
X173461227Y-96510477D01*
X173444022Y-96542665D01*
X173420873Y-96570873D01*
X173392665Y-96594022D01*
X173360477Y-96611227D01*
X173325562Y-96621819D01*
X173283105Y-96626000D01*
X172141895Y-96626000D01*
X172099438Y-96621819D01*
X172064523Y-96611227D01*
X172032335Y-96594022D01*
X172004127Y-96570873D01*
X171980978Y-96542665D01*
X171963773Y-96510477D01*
X171953181Y-96475562D01*
X171949000Y-96433105D01*
X171949000Y-94966895D01*
X171953181Y-94924438D01*
X171963773Y-94889523D01*
X171980978Y-94857335D01*
X172004127Y-94829127D01*
X172032335Y-94805978D01*
X172064523Y-94788773D01*
X172099438Y-94778181D01*
X172141895Y-94774000D01*
X173283105Y-94774000D01*
X173325562Y-94778181D01*
X173325562Y-94778181D01*
G37*
G36*
X176300562Y-94778181D02*
X176335477Y-94788773D01*
X176367665Y-94805978D01*
X176395873Y-94829127D01*
X176419022Y-94857335D01*
X176436227Y-94889523D01*
X176446819Y-94924438D01*
X176451000Y-94966895D01*
X176451000Y-96433105D01*
X176446819Y-96475562D01*
X176436227Y-96510477D01*
X176419022Y-96542665D01*
X176395873Y-96570873D01*
X176367665Y-96594022D01*
X176335477Y-96611227D01*
X176300562Y-96621819D01*
X176258105Y-96626000D01*
X175116895Y-96626000D01*
X175074438Y-96621819D01*
X175039523Y-96611227D01*
X175007335Y-96594022D01*
X174979127Y-96570873D01*
X174955978Y-96542665D01*
X174938773Y-96510477D01*
X174928181Y-96475562D01*
X174924000Y-96433105D01*
X174924000Y-94966895D01*
X174928181Y-94924438D01*
X174938773Y-94889523D01*
X174955978Y-94857335D01*
X174979127Y-94829127D01*
X175007335Y-94805978D01*
X175039523Y-94788773D01*
X175074438Y-94778181D01*
X175116895Y-94774000D01*
X176258105Y-94774000D01*
X176300562Y-94778181D01*
X176300562Y-94778181D01*
G37*
G36*
X150300562Y-94778181D02*
X150335477Y-94788773D01*
X150367665Y-94805978D01*
X150395873Y-94829127D01*
X150419022Y-94857335D01*
X150436227Y-94889523D01*
X150446819Y-94924438D01*
X150451000Y-94966895D01*
X150451000Y-96433105D01*
X150446819Y-96475562D01*
X150436227Y-96510477D01*
X150419022Y-96542665D01*
X150395873Y-96570873D01*
X150367665Y-96594022D01*
X150335477Y-96611227D01*
X150300562Y-96621819D01*
X150258105Y-96626000D01*
X149116895Y-96626000D01*
X149074438Y-96621819D01*
X149039523Y-96611227D01*
X149007335Y-96594022D01*
X148979127Y-96570873D01*
X148955978Y-96542665D01*
X148938773Y-96510477D01*
X148928181Y-96475562D01*
X148924000Y-96433105D01*
X148924000Y-94966895D01*
X148928181Y-94924438D01*
X148938773Y-94889523D01*
X148955978Y-94857335D01*
X148979127Y-94829127D01*
X149007335Y-94805978D01*
X149039523Y-94788773D01*
X149074438Y-94778181D01*
X149116895Y-94774000D01*
X150258105Y-94774000D01*
X150300562Y-94778181D01*
X150300562Y-94778181D01*
G37*
G36*
X147325562Y-94778181D02*
X147360477Y-94788773D01*
X147392665Y-94805978D01*
X147420873Y-94829127D01*
X147444022Y-94857335D01*
X147461227Y-94889523D01*
X147471819Y-94924438D01*
X147476000Y-94966895D01*
X147476000Y-96433105D01*
X147471819Y-96475562D01*
X147461227Y-96510477D01*
X147444022Y-96542665D01*
X147420873Y-96570873D01*
X147392665Y-96594022D01*
X147360477Y-96611227D01*
X147325562Y-96621819D01*
X147283105Y-96626000D01*
X146141895Y-96626000D01*
X146099438Y-96621819D01*
X146064523Y-96611227D01*
X146032335Y-96594022D01*
X146004127Y-96570873D01*
X145980978Y-96542665D01*
X145963773Y-96510477D01*
X145953181Y-96475562D01*
X145949000Y-96433105D01*
X145949000Y-94966895D01*
X145953181Y-94924438D01*
X145963773Y-94889523D01*
X145980978Y-94857335D01*
X146004127Y-94829127D01*
X146032335Y-94805978D01*
X146064523Y-94788773D01*
X146099438Y-94778181D01*
X146141895Y-94774000D01*
X147283105Y-94774000D01*
X147325562Y-94778181D01*
X147325562Y-94778181D01*
G37*
G36*
X125401000Y-94476000D02*
X124299000Y-94476000D01*
X124299000Y-91864000D01*
X125401000Y-91864000D01*
X125401000Y-94476000D01*
X125401000Y-94476000D01*
G37*
G36*
X130481000Y-94476000D02*
X129379000Y-94476000D01*
X129379000Y-91864000D01*
X130481000Y-91864000D01*
X130481000Y-94476000D01*
X130481000Y-94476000D01*
G37*
G36*
X120321000Y-94476000D02*
X119219000Y-94476000D01*
X119219000Y-91864000D01*
X120321000Y-91864000D01*
X120321000Y-94476000D01*
X120321000Y-94476000D01*
G37*
G36*
X145451000Y-93951000D02*
X143749000Y-93951000D01*
X143749000Y-92449000D01*
X145451000Y-92449000D01*
X145451000Y-93951000D01*
X145451000Y-93951000D01*
G37*
G36*
X178651000Y-93951000D02*
X176949000Y-93951000D01*
X176949000Y-92449000D01*
X178651000Y-92449000D01*
X178651000Y-93951000D01*
X178651000Y-93951000D01*
G37*
G36*
X152651000Y-93951000D02*
X150949000Y-93951000D01*
X150949000Y-92449000D01*
X152651000Y-92449000D01*
X152651000Y-93951000D01*
X152651000Y-93951000D01*
G37*
G36*
X171451000Y-93951000D02*
X169749000Y-93951000D01*
X169749000Y-92449000D01*
X171451000Y-92449000D01*
X171451000Y-93951000D01*
X171451000Y-93951000D01*
G37*
G36*
X158451000Y-93951000D02*
X156749000Y-93951000D01*
X156749000Y-92449000D01*
X158451000Y-92449000D01*
X158451000Y-93951000D01*
X158451000Y-93951000D01*
G37*
G36*
X165651000Y-93951000D02*
X163949000Y-93951000D01*
X163949000Y-92449000D01*
X165651000Y-92449000D01*
X165651000Y-93951000D01*
X165651000Y-93951000D01*
G37*
G36*
X122861000Y-91166000D02*
X121759000Y-91166000D01*
X121759000Y-88554000D01*
X122861000Y-88554000D01*
X122861000Y-91166000D01*
X122861000Y-91166000D01*
G37*
G36*
X133021000Y-91166000D02*
X131919000Y-91166000D01*
X131919000Y-88554000D01*
X133021000Y-88554000D01*
X133021000Y-91166000D01*
X133021000Y-91166000D01*
G37*
G36*
X127941000Y-91166000D02*
X126839000Y-91166000D01*
X126839000Y-88554000D01*
X127941000Y-88554000D01*
X127941000Y-91166000D01*
X127941000Y-91166000D01*
G37*
G36*
X117781000Y-91166000D02*
X116679000Y-91166000D01*
X116679000Y-88554000D01*
X117781000Y-88554000D01*
X117781000Y-91166000D01*
X117781000Y-91166000D01*
G37*
G36*
X165651000Y-90951000D02*
X163949000Y-90951000D01*
X163949000Y-89449000D01*
X165651000Y-89449000D01*
X165651000Y-90951000D01*
X165651000Y-90951000D01*
G37*
G36*
X178651000Y-90951000D02*
X176949000Y-90951000D01*
X176949000Y-89449000D01*
X178651000Y-89449000D01*
X178651000Y-90951000D01*
X178651000Y-90951000D01*
G37*
G36*
X158451000Y-90951000D02*
X156749000Y-90951000D01*
X156749000Y-89449000D01*
X158451000Y-89449000D01*
X158451000Y-90951000D01*
X158451000Y-90951000D01*
G37*
G36*
X171451000Y-90951000D02*
X169749000Y-90951000D01*
X169749000Y-89449000D01*
X171451000Y-89449000D01*
X171451000Y-90951000D01*
X171451000Y-90951000D01*
G37*
G36*
X152651000Y-90951000D02*
X150949000Y-90951000D01*
X150949000Y-89449000D01*
X152651000Y-89449000D01*
X152651000Y-90951000D01*
X152651000Y-90951000D01*
G37*
G36*
X145451000Y-90951000D02*
X143749000Y-90951000D01*
X143749000Y-89449000D01*
X145451000Y-89449000D01*
X145451000Y-90951000D01*
X145451000Y-90951000D01*
G37*
G36*
X155988677Y-83703465D02*
X156026364Y-83714898D01*
X156061103Y-83733466D01*
X156091548Y-83758452D01*
X156116534Y-83788897D01*
X156135102Y-83823636D01*
X156146535Y-83861323D01*
X156151000Y-83906661D01*
X156151000Y-84743339D01*
X156146535Y-84788677D01*
X156135102Y-84826364D01*
X156116534Y-84861103D01*
X156091548Y-84891548D01*
X156061103Y-84916534D01*
X156026364Y-84935102D01*
X155988677Y-84946535D01*
X155943339Y-84951000D01*
X154856661Y-84951000D01*
X154811323Y-84946535D01*
X154773636Y-84935102D01*
X154738897Y-84916534D01*
X154708452Y-84891548D01*
X154683466Y-84861103D01*
X154664898Y-84826364D01*
X154653465Y-84788677D01*
X154649000Y-84743339D01*
X154649000Y-83906661D01*
X154653465Y-83861323D01*
X154664898Y-83823636D01*
X154683466Y-83788897D01*
X154708452Y-83758452D01*
X154738897Y-83733466D01*
X154773636Y-83714898D01*
X154811323Y-83703465D01*
X154856661Y-83699000D01*
X155943339Y-83699000D01*
X155988677Y-83703465D01*
X155988677Y-83703465D01*
G37*
G36*
X120338062Y-81978181D02*
X120372977Y-81988773D01*
X120405165Y-82005978D01*
X120433373Y-82029127D01*
X120456522Y-82057335D01*
X120473727Y-82089523D01*
X120484319Y-82124438D01*
X120488500Y-82166895D01*
X120488500Y-83633105D01*
X120484319Y-83675562D01*
X120473727Y-83710477D01*
X120456522Y-83742665D01*
X120433373Y-83770873D01*
X120405165Y-83794022D01*
X120372977Y-83811227D01*
X120338062Y-83821819D01*
X120295605Y-83826000D01*
X119154395Y-83826000D01*
X119111938Y-83821819D01*
X119077023Y-83811227D01*
X119044835Y-83794022D01*
X119016627Y-83770873D01*
X118993478Y-83742665D01*
X118976273Y-83710477D01*
X118965681Y-83675562D01*
X118961500Y-83633105D01*
X118961500Y-82166895D01*
X118965681Y-82124438D01*
X118976273Y-82089523D01*
X118993478Y-82057335D01*
X119016627Y-82029127D01*
X119044835Y-82005978D01*
X119077023Y-81988773D01*
X119111938Y-81978181D01*
X119154395Y-81974000D01*
X120295605Y-81974000D01*
X120338062Y-81978181D01*
X120338062Y-81978181D01*
G37*
G36*
X123313062Y-81978181D02*
X123347977Y-81988773D01*
X123380165Y-82005978D01*
X123408373Y-82029127D01*
X123431522Y-82057335D01*
X123448727Y-82089523D01*
X123459319Y-82124438D01*
X123463500Y-82166895D01*
X123463500Y-83633105D01*
X123459319Y-83675562D01*
X123448727Y-83710477D01*
X123431522Y-83742665D01*
X123408373Y-83770873D01*
X123380165Y-83794022D01*
X123347977Y-83811227D01*
X123313062Y-83821819D01*
X123270605Y-83826000D01*
X122129395Y-83826000D01*
X122086938Y-83821819D01*
X122052023Y-83811227D01*
X122019835Y-83794022D01*
X121991627Y-83770873D01*
X121968478Y-83742665D01*
X121951273Y-83710477D01*
X121940681Y-83675562D01*
X121936500Y-83633105D01*
X121936500Y-82166895D01*
X121940681Y-82124438D01*
X121951273Y-82089523D01*
X121968478Y-82057335D01*
X121991627Y-82029127D01*
X122019835Y-82005978D01*
X122052023Y-81988773D01*
X122086938Y-81978181D01*
X122129395Y-81974000D01*
X123270605Y-81974000D01*
X123313062Y-81978181D01*
X123313062Y-81978181D01*
G37*
G36*
X127313062Y-81978181D02*
X127347977Y-81988773D01*
X127380165Y-82005978D01*
X127408373Y-82029127D01*
X127431522Y-82057335D01*
X127448727Y-82089523D01*
X127459319Y-82124438D01*
X127463500Y-82166895D01*
X127463500Y-83633105D01*
X127459319Y-83675562D01*
X127448727Y-83710477D01*
X127431522Y-83742665D01*
X127408373Y-83770873D01*
X127380165Y-83794022D01*
X127347977Y-83811227D01*
X127313062Y-83821819D01*
X127270605Y-83826000D01*
X126129395Y-83826000D01*
X126086938Y-83821819D01*
X126052023Y-83811227D01*
X126019835Y-83794022D01*
X125991627Y-83770873D01*
X125968478Y-83742665D01*
X125951273Y-83710477D01*
X125940681Y-83675562D01*
X125936500Y-83633105D01*
X125936500Y-82166895D01*
X125940681Y-82124438D01*
X125951273Y-82089523D01*
X125968478Y-82057335D01*
X125991627Y-82029127D01*
X126019835Y-82005978D01*
X126052023Y-81988773D01*
X126086938Y-81978181D01*
X126129395Y-81974000D01*
X127270605Y-81974000D01*
X127313062Y-81978181D01*
X127313062Y-81978181D01*
G37*
G36*
X130288062Y-81978181D02*
X130322977Y-81988773D01*
X130355165Y-82005978D01*
X130383373Y-82029127D01*
X130406522Y-82057335D01*
X130423727Y-82089523D01*
X130434319Y-82124438D01*
X130438500Y-82166895D01*
X130438500Y-83633105D01*
X130434319Y-83675562D01*
X130423727Y-83710477D01*
X130406522Y-83742665D01*
X130383373Y-83770873D01*
X130355165Y-83794022D01*
X130322977Y-83811227D01*
X130288062Y-83821819D01*
X130245605Y-83826000D01*
X129104395Y-83826000D01*
X129061938Y-83821819D01*
X129027023Y-83811227D01*
X128994835Y-83794022D01*
X128966627Y-83770873D01*
X128943478Y-83742665D01*
X128926273Y-83710477D01*
X128915681Y-83675562D01*
X128911500Y-83633105D01*
X128911500Y-82166895D01*
X128915681Y-82124438D01*
X128926273Y-82089523D01*
X128943478Y-82057335D01*
X128966627Y-82029127D01*
X128994835Y-82005978D01*
X129027023Y-81988773D01*
X129061938Y-81978181D01*
X129104395Y-81974000D01*
X130245605Y-81974000D01*
X130288062Y-81978181D01*
X130288062Y-81978181D01*
G37*
G36*
X155988677Y-81653465D02*
X156026364Y-81664898D01*
X156061103Y-81683466D01*
X156091548Y-81708452D01*
X156116534Y-81738897D01*
X156135102Y-81773636D01*
X156146535Y-81811323D01*
X156151000Y-81856661D01*
X156151000Y-82693339D01*
X156146535Y-82738677D01*
X156135102Y-82776364D01*
X156116534Y-82811103D01*
X156091548Y-82841548D01*
X156061103Y-82866534D01*
X156026364Y-82885102D01*
X155988677Y-82896535D01*
X155943339Y-82901000D01*
X154856661Y-82901000D01*
X154811323Y-82896535D01*
X154773636Y-82885102D01*
X154738897Y-82866534D01*
X154708452Y-82841548D01*
X154683466Y-82811103D01*
X154664898Y-82776364D01*
X154653465Y-82738677D01*
X154649000Y-82693339D01*
X154649000Y-81856661D01*
X154653465Y-81811323D01*
X154664898Y-81773636D01*
X154683466Y-81738897D01*
X154708452Y-81708452D01*
X154738897Y-81683466D01*
X154773636Y-81664898D01*
X154811323Y-81653465D01*
X154856661Y-81649000D01*
X155943339Y-81649000D01*
X155988677Y-81653465D01*
X155988677Y-81653465D01*
G37*
G36*
X158901000Y-80651000D02*
X149499000Y-80651000D01*
X149499000Y-79749000D01*
X158901000Y-79749000D01*
X158901000Y-80651000D01*
X158901000Y-80651000D01*
G37*
G36*
X127288677Y-79328465D02*
X127326364Y-79339898D01*
X127361103Y-79358466D01*
X127391548Y-79383452D01*
X127416534Y-79413897D01*
X127435102Y-79448636D01*
X127446535Y-79486323D01*
X127451000Y-79531661D01*
X127451000Y-80368339D01*
X127446535Y-80413677D01*
X127435102Y-80451364D01*
X127416534Y-80486103D01*
X127391548Y-80516548D01*
X127361103Y-80541534D01*
X127326364Y-80560102D01*
X127288677Y-80571535D01*
X127243339Y-80576000D01*
X126156661Y-80576000D01*
X126111323Y-80571535D01*
X126073636Y-80560102D01*
X126038897Y-80541534D01*
X126008452Y-80516548D01*
X125983466Y-80486103D01*
X125964898Y-80451364D01*
X125953465Y-80413677D01*
X125949000Y-80368339D01*
X125949000Y-79531661D01*
X125953465Y-79486323D01*
X125964898Y-79448636D01*
X125983466Y-79413897D01*
X126008452Y-79383452D01*
X126038897Y-79358466D01*
X126073636Y-79339898D01*
X126111323Y-79328465D01*
X126156661Y-79324000D01*
X127243339Y-79324000D01*
X127288677Y-79328465D01*
X127288677Y-79328465D01*
G37*
G36*
X123288677Y-79278465D02*
X123326364Y-79289898D01*
X123361103Y-79308466D01*
X123391548Y-79333452D01*
X123416534Y-79363897D01*
X123435102Y-79398636D01*
X123446535Y-79436323D01*
X123451000Y-79481661D01*
X123451000Y-80318339D01*
X123446535Y-80363677D01*
X123435102Y-80401364D01*
X123416534Y-80436103D01*
X123391548Y-80466548D01*
X123361103Y-80491534D01*
X123326364Y-80510102D01*
X123288677Y-80521535D01*
X123243339Y-80526000D01*
X122156661Y-80526000D01*
X122111323Y-80521535D01*
X122073636Y-80510102D01*
X122038897Y-80491534D01*
X122008452Y-80466548D01*
X121983466Y-80436103D01*
X121964898Y-80401364D01*
X121953465Y-80363677D01*
X121949000Y-80318339D01*
X121949000Y-79481661D01*
X121953465Y-79436323D01*
X121964898Y-79398636D01*
X121983466Y-79363897D01*
X122008452Y-79333452D01*
X122038897Y-79308466D01*
X122073636Y-79289898D01*
X122111323Y-79278465D01*
X122156661Y-79274000D01*
X123243339Y-79274000D01*
X123288677Y-79278465D01*
X123288677Y-79278465D01*
G37*
G36*
X158901000Y-78851000D02*
X149499000Y-78851000D01*
X149499000Y-77949000D01*
X158901000Y-77949000D01*
X158901000Y-78851000D01*
X158901000Y-78851000D01*
G37*
G36*
X127288677Y-77278465D02*
X127326364Y-77289898D01*
X127361103Y-77308466D01*
X127391548Y-77333452D01*
X127416534Y-77363897D01*
X127435102Y-77398636D01*
X127446535Y-77436323D01*
X127451000Y-77481661D01*
X127451000Y-78318339D01*
X127446535Y-78363677D01*
X127435102Y-78401364D01*
X127416534Y-78436103D01*
X127391548Y-78466548D01*
X127361103Y-78491534D01*
X127326364Y-78510102D01*
X127288677Y-78521535D01*
X127243339Y-78526000D01*
X126156661Y-78526000D01*
X126111323Y-78521535D01*
X126073636Y-78510102D01*
X126038897Y-78491534D01*
X126008452Y-78466548D01*
X125983466Y-78436103D01*
X125964898Y-78401364D01*
X125953465Y-78363677D01*
X125949000Y-78318339D01*
X125949000Y-77481661D01*
X125953465Y-77436323D01*
X125964898Y-77398636D01*
X125983466Y-77363897D01*
X126008452Y-77333452D01*
X126038897Y-77308466D01*
X126073636Y-77289898D01*
X126111323Y-77278465D01*
X126156661Y-77274000D01*
X127243339Y-77274000D01*
X127288677Y-77278465D01*
X127288677Y-77278465D01*
G37*
G36*
X123288677Y-77228465D02*
X123326364Y-77239898D01*
X123361103Y-77258466D01*
X123391548Y-77283452D01*
X123416534Y-77313897D01*
X123435102Y-77348636D01*
X123446535Y-77386323D01*
X123451000Y-77431661D01*
X123451000Y-78268339D01*
X123446535Y-78313677D01*
X123435102Y-78351364D01*
X123416534Y-78386103D01*
X123391548Y-78416548D01*
X123361103Y-78441534D01*
X123326364Y-78460102D01*
X123288677Y-78471535D01*
X123243339Y-78476000D01*
X122156661Y-78476000D01*
X122111323Y-78471535D01*
X122073636Y-78460102D01*
X122038897Y-78441534D01*
X122008452Y-78416548D01*
X121983466Y-78386103D01*
X121964898Y-78351364D01*
X121953465Y-78313677D01*
X121949000Y-78268339D01*
X121949000Y-77431661D01*
X121953465Y-77386323D01*
X121964898Y-77348636D01*
X121983466Y-77313897D01*
X122008452Y-77283452D01*
X122038897Y-77258466D01*
X122073636Y-77239898D01*
X122111323Y-77228465D01*
X122156661Y-77224000D01*
X123243339Y-77224000D01*
X123288677Y-77228465D01*
X123288677Y-77228465D01*
G37*
G36*
X169663677Y-76953465D02*
X169701364Y-76964898D01*
X169736103Y-76983466D01*
X169766548Y-77008452D01*
X169791534Y-77038897D01*
X169810102Y-77073636D01*
X169821535Y-77111323D01*
X169826000Y-77156661D01*
X169826000Y-78243339D01*
X169821535Y-78288677D01*
X169810102Y-78326364D01*
X169791534Y-78361103D01*
X169766548Y-78391548D01*
X169736103Y-78416534D01*
X169701364Y-78435102D01*
X169663677Y-78446535D01*
X169618339Y-78451000D01*
X168781661Y-78451000D01*
X168736323Y-78446535D01*
X168698636Y-78435102D01*
X168663897Y-78416534D01*
X168633452Y-78391548D01*
X168608466Y-78361103D01*
X168589898Y-78326364D01*
X168578465Y-78288677D01*
X168574000Y-78243339D01*
X168574000Y-77156661D01*
X168578465Y-77111323D01*
X168589898Y-77073636D01*
X168608466Y-77038897D01*
X168633452Y-77008452D01*
X168663897Y-76983466D01*
X168698636Y-76964898D01*
X168736323Y-76953465D01*
X168781661Y-76949000D01*
X169618339Y-76949000D01*
X169663677Y-76953465D01*
X169663677Y-76953465D01*
G37*
G36*
X167613677Y-76953465D02*
X167651364Y-76964898D01*
X167686103Y-76983466D01*
X167716548Y-77008452D01*
X167741534Y-77038897D01*
X167760102Y-77073636D01*
X167771535Y-77111323D01*
X167776000Y-77156661D01*
X167776000Y-78243339D01*
X167771535Y-78288677D01*
X167760102Y-78326364D01*
X167741534Y-78361103D01*
X167716548Y-78391548D01*
X167686103Y-78416534D01*
X167651364Y-78435102D01*
X167613677Y-78446535D01*
X167568339Y-78451000D01*
X166731661Y-78451000D01*
X166686323Y-78446535D01*
X166648636Y-78435102D01*
X166613897Y-78416534D01*
X166583452Y-78391548D01*
X166558466Y-78361103D01*
X166539898Y-78326364D01*
X166528465Y-78288677D01*
X166524000Y-78243339D01*
X166524000Y-77156661D01*
X166528465Y-77111323D01*
X166539898Y-77073636D01*
X166558466Y-77038897D01*
X166583452Y-77008452D01*
X166613897Y-76983466D01*
X166648636Y-76964898D01*
X166686323Y-76953465D01*
X166731661Y-76949000D01*
X167568339Y-76949000D01*
X167613677Y-76953465D01*
X167613677Y-76953465D01*
G37*
G36*
X162101000Y-77901000D02*
X161199000Y-77901000D01*
X161199000Y-68499000D01*
X162101000Y-68499000D01*
X162101000Y-77901000D01*
X162101000Y-77901000D01*
G37*
G36*
X147201000Y-77901000D02*
X146299000Y-77901000D01*
X146299000Y-68499000D01*
X147201000Y-68499000D01*
X147201000Y-77901000D01*
X147201000Y-77901000D01*
G37*
G36*
X160301000Y-77901000D02*
X159399000Y-77901000D01*
X159399000Y-68499000D01*
X160301000Y-68499000D01*
X160301000Y-77901000D01*
X160301000Y-77901000D01*
G37*
G36*
X149001000Y-77901000D02*
X148099000Y-77901000D01*
X148099000Y-68499000D01*
X149001000Y-68499000D01*
X149001000Y-77901000D01*
X149001000Y-77901000D01*
G37*
G36*
X141888677Y-76328465D02*
X141926364Y-76339898D01*
X141961103Y-76358466D01*
X141991548Y-76383452D01*
X142016534Y-76413897D01*
X142035102Y-76448636D01*
X142046535Y-76486323D01*
X142051000Y-76531661D01*
X142051000Y-77368339D01*
X142046535Y-77413677D01*
X142035102Y-77451364D01*
X142016534Y-77486103D01*
X141991548Y-77516548D01*
X141961103Y-77541534D01*
X141926364Y-77560102D01*
X141888677Y-77571535D01*
X141843339Y-77576000D01*
X140756661Y-77576000D01*
X140711323Y-77571535D01*
X140673636Y-77560102D01*
X140638897Y-77541534D01*
X140608452Y-77516548D01*
X140583466Y-77486103D01*
X140564898Y-77451364D01*
X140553465Y-77413677D01*
X140549000Y-77368339D01*
X140549000Y-76531661D01*
X140553465Y-76486323D01*
X140564898Y-76448636D01*
X140583466Y-76413897D01*
X140608452Y-76383452D01*
X140638897Y-76358466D01*
X140673636Y-76339898D01*
X140711323Y-76328465D01*
X140756661Y-76324000D01*
X141843339Y-76324000D01*
X141888677Y-76328465D01*
X141888677Y-76328465D01*
G37*
G36*
X152551000Y-76551000D02*
X150849000Y-76551000D01*
X150849000Y-74849000D01*
X152551000Y-74849000D01*
X152551000Y-76551000D01*
X152551000Y-76551000D01*
G37*
G36*
X157551000Y-76551000D02*
X155849000Y-76551000D01*
X155849000Y-74849000D01*
X157551000Y-74849000D01*
X157551000Y-76551000D01*
X157551000Y-76551000D01*
G37*
G36*
X155051000Y-76551000D02*
X153349000Y-76551000D01*
X153349000Y-74849000D01*
X155051000Y-74849000D01*
X155051000Y-76551000D01*
X155051000Y-76551000D01*
G37*
G36*
X167613677Y-74953465D02*
X167651364Y-74964898D01*
X167686103Y-74983466D01*
X167716548Y-75008452D01*
X167741534Y-75038897D01*
X167760102Y-75073636D01*
X167771535Y-75111323D01*
X167776000Y-75156661D01*
X167776000Y-76243339D01*
X167771535Y-76288677D01*
X167760102Y-76326364D01*
X167741534Y-76361103D01*
X167716548Y-76391548D01*
X167686103Y-76416534D01*
X167651364Y-76435102D01*
X167613677Y-76446535D01*
X167568339Y-76451000D01*
X166731661Y-76451000D01*
X166686323Y-76446535D01*
X166648636Y-76435102D01*
X166613897Y-76416534D01*
X166583452Y-76391548D01*
X166558466Y-76361103D01*
X166539898Y-76326364D01*
X166528465Y-76288677D01*
X166524000Y-76243339D01*
X166524000Y-75156661D01*
X166528465Y-75111323D01*
X166539898Y-75073636D01*
X166558466Y-75038897D01*
X166583452Y-75008452D01*
X166613897Y-74983466D01*
X166648636Y-74964898D01*
X166686323Y-74953465D01*
X166731661Y-74949000D01*
X167568339Y-74949000D01*
X167613677Y-74953465D01*
X167613677Y-74953465D01*
G37*
G36*
X169663677Y-74953465D02*
X169701364Y-74964898D01*
X169736103Y-74983466D01*
X169766548Y-75008452D01*
X169791534Y-75038897D01*
X169810102Y-75073636D01*
X169821535Y-75111323D01*
X169826000Y-75156661D01*
X169826000Y-76243339D01*
X169821535Y-76288677D01*
X169810102Y-76326364D01*
X169791534Y-76361103D01*
X169766548Y-76391548D01*
X169736103Y-76416534D01*
X169701364Y-76435102D01*
X169663677Y-76446535D01*
X169618339Y-76451000D01*
X168781661Y-76451000D01*
X168736323Y-76446535D01*
X168698636Y-76435102D01*
X168663897Y-76416534D01*
X168633452Y-76391548D01*
X168608466Y-76361103D01*
X168589898Y-76326364D01*
X168578465Y-76288677D01*
X168574000Y-76243339D01*
X168574000Y-75156661D01*
X168578465Y-75111323D01*
X168589898Y-75073636D01*
X168608466Y-75038897D01*
X168633452Y-75008452D01*
X168663897Y-74983466D01*
X168698636Y-74964898D01*
X168736323Y-74953465D01*
X168781661Y-74949000D01*
X169618339Y-74949000D01*
X169663677Y-74953465D01*
X169663677Y-74953465D01*
G37*
G36*
X141888677Y-74278465D02*
X141926364Y-74289898D01*
X141961103Y-74308466D01*
X141991548Y-74333452D01*
X142016534Y-74363897D01*
X142035102Y-74398636D01*
X142046535Y-74436323D01*
X142051000Y-74481661D01*
X142051000Y-75318339D01*
X142046535Y-75363677D01*
X142035102Y-75401364D01*
X142016534Y-75436103D01*
X141991548Y-75466548D01*
X141961103Y-75491534D01*
X141926364Y-75510102D01*
X141888677Y-75521535D01*
X141843339Y-75526000D01*
X140756661Y-75526000D01*
X140711323Y-75521535D01*
X140673636Y-75510102D01*
X140638897Y-75491534D01*
X140608452Y-75466548D01*
X140583466Y-75436103D01*
X140564898Y-75401364D01*
X140553465Y-75363677D01*
X140549000Y-75318339D01*
X140549000Y-74481661D01*
X140553465Y-74436323D01*
X140564898Y-74398636D01*
X140583466Y-74363897D01*
X140608452Y-74333452D01*
X140638897Y-74308466D01*
X140673636Y-74289898D01*
X140711323Y-74278465D01*
X140756661Y-74274000D01*
X141843339Y-74274000D01*
X141888677Y-74278465D01*
X141888677Y-74278465D01*
G37*
G36*
X169713677Y-72953465D02*
X169751364Y-72964898D01*
X169786103Y-72983466D01*
X169816548Y-73008452D01*
X169841534Y-73038897D01*
X169860102Y-73073636D01*
X169871535Y-73111323D01*
X169876000Y-73156661D01*
X169876000Y-74243339D01*
X169871535Y-74288677D01*
X169860102Y-74326364D01*
X169841534Y-74361103D01*
X169816548Y-74391548D01*
X169786103Y-74416534D01*
X169751364Y-74435102D01*
X169713677Y-74446535D01*
X169668339Y-74451000D01*
X168831661Y-74451000D01*
X168786323Y-74446535D01*
X168748636Y-74435102D01*
X168713897Y-74416534D01*
X168683452Y-74391548D01*
X168658466Y-74361103D01*
X168639898Y-74326364D01*
X168628465Y-74288677D01*
X168624000Y-74243339D01*
X168624000Y-73156661D01*
X168628465Y-73111323D01*
X168639898Y-73073636D01*
X168658466Y-73038897D01*
X168683452Y-73008452D01*
X168713897Y-72983466D01*
X168748636Y-72964898D01*
X168786323Y-72953465D01*
X168831661Y-72949000D01*
X169668339Y-72949000D01*
X169713677Y-72953465D01*
X169713677Y-72953465D01*
G37*
G36*
X167663677Y-72953465D02*
X167701364Y-72964898D01*
X167736103Y-72983466D01*
X167766548Y-73008452D01*
X167791534Y-73038897D01*
X167810102Y-73073636D01*
X167821535Y-73111323D01*
X167826000Y-73156661D01*
X167826000Y-74243339D01*
X167821535Y-74288677D01*
X167810102Y-74326364D01*
X167791534Y-74361103D01*
X167766548Y-74391548D01*
X167736103Y-74416534D01*
X167701364Y-74435102D01*
X167663677Y-74446535D01*
X167618339Y-74451000D01*
X166781661Y-74451000D01*
X166736323Y-74446535D01*
X166698636Y-74435102D01*
X166663897Y-74416534D01*
X166633452Y-74391548D01*
X166608466Y-74361103D01*
X166589898Y-74326364D01*
X166578465Y-74288677D01*
X166574000Y-74243339D01*
X166574000Y-73156661D01*
X166578465Y-73111323D01*
X166589898Y-73073636D01*
X166608466Y-73038897D01*
X166633452Y-73008452D01*
X166663897Y-72983466D01*
X166698636Y-72964898D01*
X166736323Y-72953465D01*
X166781661Y-72949000D01*
X167618339Y-72949000D01*
X167663677Y-72953465D01*
X167663677Y-72953465D01*
G37*
G36*
X157551000Y-74051000D02*
X155849000Y-74051000D01*
X155849000Y-72349000D01*
X157551000Y-72349000D01*
X157551000Y-74051000D01*
X157551000Y-74051000D01*
G37*
G36*
X155051000Y-74051000D02*
X153349000Y-74051000D01*
X153349000Y-72349000D01*
X155051000Y-72349000D01*
X155051000Y-74051000D01*
X155051000Y-74051000D01*
G37*
G36*
X152551000Y-74051000D02*
X150849000Y-74051000D01*
X150849000Y-72349000D01*
X152551000Y-72349000D01*
X152551000Y-74051000D01*
X152551000Y-74051000D01*
G37*
G36*
X167638677Y-70953465D02*
X167676364Y-70964898D01*
X167711103Y-70983466D01*
X167741548Y-71008452D01*
X167766534Y-71038897D01*
X167785102Y-71073636D01*
X167796535Y-71111323D01*
X167801000Y-71156661D01*
X167801000Y-72243339D01*
X167796535Y-72288677D01*
X167785102Y-72326364D01*
X167766534Y-72361103D01*
X167741548Y-72391548D01*
X167711103Y-72416534D01*
X167676364Y-72435102D01*
X167638677Y-72446535D01*
X167593339Y-72451000D01*
X166756661Y-72451000D01*
X166711323Y-72446535D01*
X166673636Y-72435102D01*
X166638897Y-72416534D01*
X166608452Y-72391548D01*
X166583466Y-72361103D01*
X166564898Y-72326364D01*
X166553465Y-72288677D01*
X166549000Y-72243339D01*
X166549000Y-71156661D01*
X166553465Y-71111323D01*
X166564898Y-71073636D01*
X166583466Y-71038897D01*
X166608452Y-71008452D01*
X166638897Y-70983466D01*
X166673636Y-70964898D01*
X166711323Y-70953465D01*
X166756661Y-70949000D01*
X167593339Y-70949000D01*
X167638677Y-70953465D01*
X167638677Y-70953465D01*
G37*
G36*
X169688677Y-70953465D02*
X169726364Y-70964898D01*
X169761103Y-70983466D01*
X169791548Y-71008452D01*
X169816534Y-71038897D01*
X169835102Y-71073636D01*
X169846535Y-71111323D01*
X169851000Y-71156661D01*
X169851000Y-72243339D01*
X169846535Y-72288677D01*
X169835102Y-72326364D01*
X169816534Y-72361103D01*
X169791548Y-72391548D01*
X169761103Y-72416534D01*
X169726364Y-72435102D01*
X169688677Y-72446535D01*
X169643339Y-72451000D01*
X168806661Y-72451000D01*
X168761323Y-72446535D01*
X168723636Y-72435102D01*
X168688897Y-72416534D01*
X168658452Y-72391548D01*
X168633466Y-72361103D01*
X168614898Y-72326364D01*
X168603465Y-72288677D01*
X168599000Y-72243339D01*
X168599000Y-71156661D01*
X168603465Y-71111323D01*
X168614898Y-71073636D01*
X168633466Y-71038897D01*
X168658452Y-71008452D01*
X168688897Y-70983466D01*
X168723636Y-70964898D01*
X168761323Y-70953465D01*
X168806661Y-70949000D01*
X169643339Y-70949000D01*
X169688677Y-70953465D01*
X169688677Y-70953465D01*
G37*
G36*
X135886480Y-71047473D02*
X135924167Y-71058906D01*
X135958906Y-71077474D01*
X135989351Y-71102460D01*
X136014337Y-71132905D01*
X136032905Y-71167644D01*
X136044338Y-71205331D01*
X136048803Y-71250669D01*
X136048803Y-72087347D01*
X136044338Y-72132685D01*
X136032905Y-72170372D01*
X136014337Y-72205111D01*
X135989351Y-72235556D01*
X135958906Y-72260542D01*
X135924167Y-72279110D01*
X135886480Y-72290543D01*
X135841142Y-72295008D01*
X134754464Y-72295008D01*
X134709126Y-72290543D01*
X134671439Y-72279110D01*
X134636700Y-72260542D01*
X134606255Y-72235556D01*
X134581269Y-72205111D01*
X134562701Y-72170372D01*
X134551268Y-72132685D01*
X134546803Y-72087347D01*
X134546803Y-71250669D01*
X134551268Y-71205331D01*
X134562701Y-71167644D01*
X134581269Y-71132905D01*
X134606255Y-71102460D01*
X134636700Y-71077474D01*
X134671439Y-71058906D01*
X134709126Y-71047473D01*
X134754464Y-71043008D01*
X135841142Y-71043008D01*
X135886480Y-71047473D01*
X135886480Y-71047473D01*
G37*
G36*
X141886480Y-71022473D02*
X141924167Y-71033906D01*
X141958906Y-71052474D01*
X141989351Y-71077460D01*
X142014337Y-71107905D01*
X142032905Y-71142644D01*
X142044338Y-71180331D01*
X142048803Y-71225669D01*
X142048803Y-72062347D01*
X142044338Y-72107685D01*
X142032905Y-72145372D01*
X142014337Y-72180111D01*
X141989351Y-72210556D01*
X141958906Y-72235542D01*
X141924167Y-72254110D01*
X141886480Y-72265543D01*
X141841142Y-72270008D01*
X140754464Y-72270008D01*
X140709126Y-72265543D01*
X140671439Y-72254110D01*
X140636700Y-72235542D01*
X140606255Y-72210556D01*
X140581269Y-72180111D01*
X140562701Y-72145372D01*
X140551268Y-72107685D01*
X140546803Y-72062347D01*
X140546803Y-71225669D01*
X140551268Y-71180331D01*
X140562701Y-71142644D01*
X140581269Y-71107905D01*
X140606255Y-71077460D01*
X140636700Y-71052474D01*
X140671439Y-71033906D01*
X140709126Y-71022473D01*
X140754464Y-71018008D01*
X141841142Y-71018008D01*
X141886480Y-71022473D01*
X141886480Y-71022473D01*
G37*
G36*
X128161992Y-71670008D02*
X125859992Y-71670008D01*
X125859992Y-70518008D01*
X128161992Y-70518008D01*
X128161992Y-71670008D01*
X128161992Y-71670008D01*
G37*
G36*
X157551000Y-71551000D02*
X155849000Y-71551000D01*
X155849000Y-69849000D01*
X157551000Y-69849000D01*
X157551000Y-71551000D01*
X157551000Y-71551000D01*
G37*
G36*
X155051000Y-71551000D02*
X153349000Y-71551000D01*
X153349000Y-69849000D01*
X155051000Y-69849000D01*
X155051000Y-71551000D01*
X155051000Y-71551000D01*
G37*
G36*
X152551000Y-71551000D02*
X150849000Y-71551000D01*
X150849000Y-69849000D01*
X152551000Y-69849000D01*
X152551000Y-71551000D01*
X152551000Y-71551000D01*
G37*
G36*
X118161000Y-71331000D02*
X115549000Y-71331000D01*
X115549000Y-70229000D01*
X118161000Y-70229000D01*
X118161000Y-71331000D01*
X118161000Y-71331000D01*
G37*
G36*
X167663677Y-68953465D02*
X167701364Y-68964898D01*
X167736103Y-68983466D01*
X167766548Y-69008452D01*
X167791534Y-69038897D01*
X167810102Y-69073636D01*
X167821535Y-69111323D01*
X167826000Y-69156661D01*
X167826000Y-70243339D01*
X167821535Y-70288677D01*
X167810102Y-70326364D01*
X167791534Y-70361103D01*
X167766548Y-70391548D01*
X167736103Y-70416534D01*
X167701364Y-70435102D01*
X167663677Y-70446535D01*
X167618339Y-70451000D01*
X166781661Y-70451000D01*
X166736323Y-70446535D01*
X166698636Y-70435102D01*
X166663897Y-70416534D01*
X166633452Y-70391548D01*
X166608466Y-70361103D01*
X166589898Y-70326364D01*
X166578465Y-70288677D01*
X166574000Y-70243339D01*
X166574000Y-69156661D01*
X166578465Y-69111323D01*
X166589898Y-69073636D01*
X166608466Y-69038897D01*
X166633452Y-69008452D01*
X166663897Y-68983466D01*
X166698636Y-68964898D01*
X166736323Y-68953465D01*
X166781661Y-68949000D01*
X167618339Y-68949000D01*
X167663677Y-68953465D01*
X167663677Y-68953465D01*
G37*
G36*
X169713677Y-68953465D02*
X169751364Y-68964898D01*
X169786103Y-68983466D01*
X169816548Y-69008452D01*
X169841534Y-69038897D01*
X169860102Y-69073636D01*
X169871535Y-69111323D01*
X169876000Y-69156661D01*
X169876000Y-70243339D01*
X169871535Y-70288677D01*
X169860102Y-70326364D01*
X169841534Y-70361103D01*
X169816548Y-70391548D01*
X169786103Y-70416534D01*
X169751364Y-70435102D01*
X169713677Y-70446535D01*
X169668339Y-70451000D01*
X168831661Y-70451000D01*
X168786323Y-70446535D01*
X168748636Y-70435102D01*
X168713897Y-70416534D01*
X168683452Y-70391548D01*
X168658466Y-70361103D01*
X168639898Y-70326364D01*
X168628465Y-70288677D01*
X168624000Y-70243339D01*
X168624000Y-69156661D01*
X168628465Y-69111323D01*
X168639898Y-69073636D01*
X168658466Y-69038897D01*
X168683452Y-69008452D01*
X168713897Y-68983466D01*
X168748636Y-68964898D01*
X168786323Y-68953465D01*
X168831661Y-68949000D01*
X169668339Y-68949000D01*
X169713677Y-68953465D01*
X169713677Y-68953465D01*
G37*
G36*
X137711480Y-68897473D02*
X137749167Y-68908906D01*
X137783906Y-68927474D01*
X137814351Y-68952460D01*
X137839337Y-68982905D01*
X137857905Y-69017644D01*
X137869338Y-69055331D01*
X137873803Y-69100669D01*
X137873803Y-70187347D01*
X137869338Y-70232685D01*
X137857905Y-70270372D01*
X137839337Y-70305111D01*
X137814351Y-70335556D01*
X137783906Y-70360542D01*
X137749167Y-70379110D01*
X137711480Y-70390543D01*
X137666142Y-70395008D01*
X136829464Y-70395008D01*
X136784126Y-70390543D01*
X136746439Y-70379110D01*
X136711700Y-70360542D01*
X136681255Y-70335556D01*
X136656269Y-70305111D01*
X136637701Y-70270372D01*
X136626268Y-70232685D01*
X136621803Y-70187347D01*
X136621803Y-69100669D01*
X136626268Y-69055331D01*
X136637701Y-69017644D01*
X136656269Y-68982905D01*
X136681255Y-68952460D01*
X136711700Y-68927474D01*
X136746439Y-68908906D01*
X136784126Y-68897473D01*
X136829464Y-68893008D01*
X137666142Y-68893008D01*
X137711480Y-68897473D01*
X137711480Y-68897473D01*
G37*
G36*
X139761480Y-68897473D02*
X139799167Y-68908906D01*
X139833906Y-68927474D01*
X139864351Y-68952460D01*
X139889337Y-68982905D01*
X139907905Y-69017644D01*
X139919338Y-69055331D01*
X139923803Y-69100669D01*
X139923803Y-70187347D01*
X139919338Y-70232685D01*
X139907905Y-70270372D01*
X139889337Y-70305111D01*
X139864351Y-70335556D01*
X139833906Y-70360542D01*
X139799167Y-70379110D01*
X139761480Y-70390543D01*
X139716142Y-70395008D01*
X138879464Y-70395008D01*
X138834126Y-70390543D01*
X138796439Y-70379110D01*
X138761700Y-70360542D01*
X138731255Y-70335556D01*
X138706269Y-70305111D01*
X138687701Y-70270372D01*
X138676268Y-70232685D01*
X138671803Y-70187347D01*
X138671803Y-69100669D01*
X138676268Y-69055331D01*
X138687701Y-69017644D01*
X138706269Y-68982905D01*
X138731255Y-68952460D01*
X138761700Y-68927474D01*
X138796439Y-68908906D01*
X138834126Y-68897473D01*
X138879464Y-68893008D01*
X139716142Y-68893008D01*
X139761480Y-68897473D01*
X139761480Y-68897473D01*
G37*
G36*
X135886480Y-68997473D02*
X135924167Y-69008906D01*
X135958906Y-69027474D01*
X135989351Y-69052460D01*
X136014337Y-69082905D01*
X136032905Y-69117644D01*
X136044338Y-69155331D01*
X136048803Y-69200669D01*
X136048803Y-70037347D01*
X136044338Y-70082685D01*
X136032905Y-70120372D01*
X136014337Y-70155111D01*
X135989351Y-70185556D01*
X135958906Y-70210542D01*
X135924167Y-70229110D01*
X135886480Y-70240543D01*
X135841142Y-70245008D01*
X134754464Y-70245008D01*
X134709126Y-70240543D01*
X134671439Y-70229110D01*
X134636700Y-70210542D01*
X134606255Y-70185556D01*
X134581269Y-70155111D01*
X134562701Y-70120372D01*
X134551268Y-70082685D01*
X134546803Y-70037347D01*
X134546803Y-69200669D01*
X134551268Y-69155331D01*
X134562701Y-69117644D01*
X134581269Y-69082905D01*
X134606255Y-69052460D01*
X134636700Y-69027474D01*
X134671439Y-69008906D01*
X134709126Y-68997473D01*
X134754464Y-68993008D01*
X135841142Y-68993008D01*
X135886480Y-68997473D01*
X135886480Y-68997473D01*
G37*
G36*
X141886480Y-68972473D02*
X141924167Y-68983906D01*
X141958906Y-69002474D01*
X141989351Y-69027460D01*
X142014337Y-69057905D01*
X142032905Y-69092644D01*
X142044338Y-69130331D01*
X142048803Y-69175669D01*
X142048803Y-70012347D01*
X142044338Y-70057685D01*
X142032905Y-70095372D01*
X142014337Y-70130111D01*
X141989351Y-70160556D01*
X141958906Y-70185542D01*
X141924167Y-70204110D01*
X141886480Y-70215543D01*
X141841142Y-70220008D01*
X140754464Y-70220008D01*
X140709126Y-70215543D01*
X140671439Y-70204110D01*
X140636700Y-70185542D01*
X140606255Y-70160556D01*
X140581269Y-70130111D01*
X140562701Y-70095372D01*
X140551268Y-70057685D01*
X140546803Y-70012347D01*
X140546803Y-69175669D01*
X140551268Y-69130331D01*
X140562701Y-69092644D01*
X140581269Y-69057905D01*
X140606255Y-69027460D01*
X140636700Y-69002474D01*
X140671439Y-68983906D01*
X140709126Y-68972473D01*
X140754464Y-68968008D01*
X141841142Y-68968008D01*
X141886480Y-68972473D01*
X141886480Y-68972473D01*
G37*
G36*
X129061992Y-70170008D02*
X127959992Y-70170008D01*
X127959992Y-69068008D01*
X129061992Y-69068008D01*
X129061992Y-70170008D01*
X129061992Y-70170008D01*
G37*
G36*
X126061992Y-70170008D02*
X124959992Y-70170008D01*
X124959992Y-69068008D01*
X126061992Y-69068008D01*
X126061992Y-70170008D01*
X126061992Y-70170008D01*
G37*
G36*
X175001000Y-69001000D02*
X171399000Y-69001000D01*
X171399000Y-66399000D01*
X175001000Y-66399000D01*
X175001000Y-69001000D01*
X175001000Y-69001000D01*
G37*
G36*
X114851000Y-68791000D02*
X112239000Y-68791000D01*
X112239000Y-67689000D01*
X114851000Y-67689000D01*
X114851000Y-68791000D01*
X114851000Y-68791000D01*
G37*
G36*
X128161992Y-68720008D02*
X125859992Y-68720008D01*
X125859992Y-67568008D01*
X128161992Y-67568008D01*
X128161992Y-68720008D01*
X128161992Y-68720008D01*
G37*
G36*
X158901000Y-68451000D02*
X149499000Y-68451000D01*
X149499000Y-67549000D01*
X158901000Y-67549000D01*
X158901000Y-68451000D01*
X158901000Y-68451000D01*
G37*
G36*
X158901000Y-66651000D02*
X149499000Y-66651000D01*
X149499000Y-65749000D01*
X158901000Y-65749000D01*
X158901000Y-66651000D01*
X158901000Y-66651000D01*
G37*
G36*
X139051000Y-66451000D02*
X137349000Y-66451000D01*
X137349000Y-64949000D01*
X139051000Y-64949000D01*
X139051000Y-66451000D01*
X139051000Y-66451000D01*
G37*
G36*
X131851000Y-66451000D02*
X130149000Y-66451000D01*
X130149000Y-64949000D01*
X131851000Y-64949000D01*
X131851000Y-66451000D01*
X131851000Y-66451000D01*
G37*
G36*
X118161000Y-66251000D02*
X115549000Y-66251000D01*
X115549000Y-65149000D01*
X118161000Y-65149000D01*
X118161000Y-66251000D01*
X118161000Y-66251000D01*
G37*
G36*
X142088677Y-64503465D02*
X142126364Y-64514898D01*
X142161103Y-64533466D01*
X142191548Y-64558452D01*
X142216534Y-64588897D01*
X142235102Y-64623636D01*
X142246535Y-64661323D01*
X142251000Y-64706661D01*
X142251000Y-65543339D01*
X142246535Y-65588677D01*
X142235102Y-65626364D01*
X142216534Y-65661103D01*
X142191548Y-65691548D01*
X142161103Y-65716534D01*
X142126364Y-65735102D01*
X142088677Y-65746535D01*
X142043339Y-65751000D01*
X140956661Y-65751000D01*
X140911323Y-65746535D01*
X140873636Y-65735102D01*
X140838897Y-65716534D01*
X140808452Y-65691548D01*
X140783466Y-65661103D01*
X140764898Y-65626364D01*
X140753465Y-65588677D01*
X140749000Y-65543339D01*
X140749000Y-64706661D01*
X140753465Y-64661323D01*
X140764898Y-64623636D01*
X140783466Y-64588897D01*
X140808452Y-64558452D01*
X140838897Y-64533466D01*
X140873636Y-64514898D01*
X140911323Y-64503465D01*
X140956661Y-64499000D01*
X142043339Y-64499000D01*
X142088677Y-64503465D01*
X142088677Y-64503465D01*
G37*
G36*
X114851000Y-63711000D02*
X112239000Y-63711000D01*
X112239000Y-62609000D01*
X114851000Y-62609000D01*
X114851000Y-63711000D01*
X114851000Y-63711000D01*
G37*
G36*
X142088677Y-62453465D02*
X142126364Y-62464898D01*
X142161103Y-62483466D01*
X142191548Y-62508452D01*
X142216534Y-62538897D01*
X142235102Y-62573636D01*
X142246535Y-62611323D01*
X142251000Y-62656661D01*
X142251000Y-63493339D01*
X142246535Y-63538677D01*
X142235102Y-63576364D01*
X142216534Y-63611103D01*
X142191548Y-63641548D01*
X142161103Y-63666534D01*
X142126364Y-63685102D01*
X142088677Y-63696535D01*
X142043339Y-63701000D01*
X140956661Y-63701000D01*
X140911323Y-63696535D01*
X140873636Y-63685102D01*
X140838897Y-63666534D01*
X140808452Y-63641548D01*
X140783466Y-63611103D01*
X140764898Y-63576364D01*
X140753465Y-63538677D01*
X140749000Y-63493339D01*
X140749000Y-62656661D01*
X140753465Y-62611323D01*
X140764898Y-62573636D01*
X140783466Y-62538897D01*
X140808452Y-62508452D01*
X140838897Y-62483466D01*
X140873636Y-62464898D01*
X140911323Y-62453465D01*
X140956661Y-62449000D01*
X142043339Y-62449000D01*
X142088677Y-62453465D01*
X142088677Y-62453465D01*
G37*
G36*
X139051000Y-63451000D02*
X137349000Y-63451000D01*
X137349000Y-61949000D01*
X139051000Y-61949000D01*
X139051000Y-63451000D01*
X139051000Y-63451000D01*
G37*
G36*
X131851000Y-63451000D02*
X130149000Y-63451000D01*
X130149000Y-61949000D01*
X131851000Y-61949000D01*
X131851000Y-63451000D01*
X131851000Y-63451000D01*
G37*
G36*
X118161000Y-61171000D02*
X115549000Y-61171000D01*
X115549000Y-60069000D01*
X118161000Y-60069000D01*
X118161000Y-61171000D01*
X118161000Y-61171000D01*
G37*
G36*
X146663677Y-57953465D02*
X146701364Y-57964898D01*
X146736103Y-57983466D01*
X146766548Y-58008452D01*
X146791534Y-58038897D01*
X146810102Y-58073636D01*
X146821535Y-58111323D01*
X146826000Y-58156661D01*
X146826000Y-59243339D01*
X146821535Y-59288677D01*
X146810102Y-59326364D01*
X146791534Y-59361103D01*
X146766548Y-59391548D01*
X146736103Y-59416534D01*
X146701364Y-59435102D01*
X146663677Y-59446535D01*
X146618339Y-59451000D01*
X145781661Y-59451000D01*
X145736323Y-59446535D01*
X145698636Y-59435102D01*
X145663897Y-59416534D01*
X145633452Y-59391548D01*
X145608466Y-59361103D01*
X145589898Y-59326364D01*
X145578465Y-59288677D01*
X145574000Y-59243339D01*
X145574000Y-58156661D01*
X145578465Y-58111323D01*
X145589898Y-58073636D01*
X145608466Y-58038897D01*
X145633452Y-58008452D01*
X145663897Y-57983466D01*
X145698636Y-57964898D01*
X145736323Y-57953465D01*
X145781661Y-57949000D01*
X146618339Y-57949000D01*
X146663677Y-57953465D01*
X146663677Y-57953465D01*
G37*
G36*
X141663677Y-57953465D02*
X141701364Y-57964898D01*
X141736103Y-57983466D01*
X141766548Y-58008452D01*
X141791534Y-58038897D01*
X141810102Y-58073636D01*
X141821535Y-58111323D01*
X141826000Y-58156661D01*
X141826000Y-59243339D01*
X141821535Y-59288677D01*
X141810102Y-59326364D01*
X141791534Y-59361103D01*
X141766548Y-59391548D01*
X141736103Y-59416534D01*
X141701364Y-59435102D01*
X141663677Y-59446535D01*
X141618339Y-59451000D01*
X140781661Y-59451000D01*
X140736323Y-59446535D01*
X140698636Y-59435102D01*
X140663897Y-59416534D01*
X140633452Y-59391548D01*
X140608466Y-59361103D01*
X140589898Y-59326364D01*
X140578465Y-59288677D01*
X140574000Y-59243339D01*
X140574000Y-58156661D01*
X140578465Y-58111323D01*
X140589898Y-58073636D01*
X140608466Y-58038897D01*
X140633452Y-58008452D01*
X140663897Y-57983466D01*
X140698636Y-57964898D01*
X140736323Y-57953465D01*
X140781661Y-57949000D01*
X141618339Y-57949000D01*
X141663677Y-57953465D01*
X141663677Y-57953465D01*
G37*
G36*
X139613677Y-57953465D02*
X139651364Y-57964898D01*
X139686103Y-57983466D01*
X139716548Y-58008452D01*
X139741534Y-58038897D01*
X139760102Y-58073636D01*
X139771535Y-58111323D01*
X139776000Y-58156661D01*
X139776000Y-59243339D01*
X139771535Y-59288677D01*
X139760102Y-59326364D01*
X139741534Y-59361103D01*
X139716548Y-59391548D01*
X139686103Y-59416534D01*
X139651364Y-59435102D01*
X139613677Y-59446535D01*
X139568339Y-59451000D01*
X138731661Y-59451000D01*
X138686323Y-59446535D01*
X138648636Y-59435102D01*
X138613897Y-59416534D01*
X138583452Y-59391548D01*
X138558466Y-59361103D01*
X138539898Y-59326364D01*
X138528465Y-59288677D01*
X138524000Y-59243339D01*
X138524000Y-58156661D01*
X138528465Y-58111323D01*
X138539898Y-58073636D01*
X138558466Y-58038897D01*
X138583452Y-58008452D01*
X138613897Y-57983466D01*
X138648636Y-57964898D01*
X138686323Y-57953465D01*
X138731661Y-57949000D01*
X139568339Y-57949000D01*
X139613677Y-57953465D01*
X139613677Y-57953465D01*
G37*
G36*
X144613677Y-57953465D02*
X144651364Y-57964898D01*
X144686103Y-57983466D01*
X144716548Y-58008452D01*
X144741534Y-58038897D01*
X144760102Y-58073636D01*
X144771535Y-58111323D01*
X144776000Y-58156661D01*
X144776000Y-59243339D01*
X144771535Y-59288677D01*
X144760102Y-59326364D01*
X144741534Y-59361103D01*
X144716548Y-59391548D01*
X144686103Y-59416534D01*
X144651364Y-59435102D01*
X144613677Y-59446535D01*
X144568339Y-59451000D01*
X143731661Y-59451000D01*
X143686323Y-59446535D01*
X143648636Y-59435102D01*
X143613897Y-59416534D01*
X143583452Y-59391548D01*
X143558466Y-59361103D01*
X143539898Y-59326364D01*
X143528465Y-59288677D01*
X143524000Y-59243339D01*
X143524000Y-58156661D01*
X143528465Y-58111323D01*
X143539898Y-58073636D01*
X143558466Y-58038897D01*
X143583452Y-58008452D01*
X143613897Y-57983466D01*
X143648636Y-57964898D01*
X143686323Y-57953465D01*
X143731661Y-57949000D01*
X144568339Y-57949000D01*
X144613677Y-57953465D01*
X144613677Y-57953465D01*
G37*
G36*
X158201000Y-56901000D02*
X157599000Y-56901000D01*
X157599000Y-54849000D01*
X158201000Y-54849000D01*
X158201000Y-56901000D01*
X158201000Y-56901000D01*
G37*
G36*
X161901000Y-56876000D02*
X161299000Y-56876000D01*
X161299000Y-54824000D01*
X161901000Y-54824000D01*
X161901000Y-56876000D01*
X161901000Y-56876000D01*
G37*
G36*
X150663677Y-54953465D02*
X150701364Y-54964898D01*
X150736103Y-54983466D01*
X150766548Y-55008452D01*
X150791534Y-55038897D01*
X150810102Y-55073636D01*
X150821535Y-55111323D01*
X150826000Y-55156661D01*
X150826000Y-56243339D01*
X150821535Y-56288677D01*
X150810102Y-56326364D01*
X150791534Y-56361103D01*
X150766548Y-56391548D01*
X150736103Y-56416534D01*
X150701364Y-56435102D01*
X150663677Y-56446535D01*
X150618339Y-56451000D01*
X149781661Y-56451000D01*
X149736323Y-56446535D01*
X149698636Y-56435102D01*
X149663897Y-56416534D01*
X149633452Y-56391548D01*
X149608466Y-56361103D01*
X149589898Y-56326364D01*
X149578465Y-56288677D01*
X149574000Y-56243339D01*
X149574000Y-55156661D01*
X149578465Y-55111323D01*
X149589898Y-55073636D01*
X149608466Y-55038897D01*
X149633452Y-55008452D01*
X149663897Y-54983466D01*
X149698636Y-54964898D01*
X149736323Y-54953465D01*
X149781661Y-54949000D01*
X150618339Y-54949000D01*
X150663677Y-54953465D01*
X150663677Y-54953465D01*
G37*
G36*
X152713677Y-54953465D02*
X152751364Y-54964898D01*
X152786103Y-54983466D01*
X152816548Y-55008452D01*
X152841534Y-55038897D01*
X152860102Y-55073636D01*
X152871535Y-55111323D01*
X152876000Y-55156661D01*
X152876000Y-56243339D01*
X152871535Y-56288677D01*
X152860102Y-56326364D01*
X152841534Y-56361103D01*
X152816548Y-56391548D01*
X152786103Y-56416534D01*
X152751364Y-56435102D01*
X152713677Y-56446535D01*
X152668339Y-56451000D01*
X151831661Y-56451000D01*
X151786323Y-56446535D01*
X151748636Y-56435102D01*
X151713897Y-56416534D01*
X151683452Y-56391548D01*
X151658466Y-56361103D01*
X151639898Y-56326364D01*
X151628465Y-56288677D01*
X151624000Y-56243339D01*
X151624000Y-55156661D01*
X151628465Y-55111323D01*
X151639898Y-55073636D01*
X151658466Y-55038897D01*
X151683452Y-55008452D01*
X151713897Y-54983466D01*
X151748636Y-54964898D01*
X151786323Y-54953465D01*
X151831661Y-54949000D01*
X152668339Y-54949000D01*
X152713677Y-54953465D01*
X152713677Y-54953465D01*
G37*
G36*
X146551000Y-55801000D02*
X144449000Y-55801000D01*
X144449000Y-54199000D01*
X146551000Y-54199000D01*
X146551000Y-55801000D01*
X146551000Y-55801000D01*
G37*
G36*
X157201000Y-54951000D02*
X156599000Y-54951000D01*
X156599000Y-52899000D01*
X157201000Y-52899000D01*
X157201000Y-54951000D01*
X157201000Y-54951000D01*
G37*
G36*
X160901000Y-54926000D02*
X160299000Y-54926000D01*
X160299000Y-52874000D01*
X160901000Y-52874000D01*
X160901000Y-54926000D01*
X160901000Y-54926000D01*
G37*
G36*
X129905996Y-51953051D02*
X129939653Y-51963261D01*
X129970667Y-51979838D01*
X129997852Y-52002148D01*
X130020162Y-52029333D01*
X130036739Y-52060347D01*
X130046949Y-52094004D01*
X130051000Y-52135138D01*
X130051000Y-54464862D01*
X130046949Y-54505996D01*
X130036739Y-54539653D01*
X130020162Y-54570667D01*
X129997852Y-54597852D01*
X129970667Y-54620162D01*
X129939653Y-54636739D01*
X129905996Y-54646949D01*
X129864862Y-54651000D01*
X128535138Y-54651000D01*
X128494004Y-54646949D01*
X128460347Y-54636739D01*
X128429333Y-54620162D01*
X128402148Y-54597852D01*
X128379838Y-54570667D01*
X128363261Y-54539653D01*
X128353051Y-54505996D01*
X128349000Y-54464862D01*
X128349000Y-52135138D01*
X128353051Y-52094004D01*
X128363261Y-52060347D01*
X128379838Y-52029333D01*
X128402148Y-52002148D01*
X128429333Y-51979838D01*
X128460347Y-51963261D01*
X128494004Y-51953051D01*
X128535138Y-51949000D01*
X129864862Y-51949000D01*
X129905996Y-51953051D01*
X129905996Y-51953051D01*
G37*
G36*
X140251000Y-54651000D02*
X138149000Y-54651000D01*
X138149000Y-50749000D01*
X140251000Y-50749000D01*
X140251000Y-54651000D01*
X140251000Y-54651000D01*
G37*
G36*
X118788413Y-52055525D02*
X118863456Y-52078290D01*
X118873425Y-52081314D01*
X118951774Y-52123193D01*
X119020448Y-52179552D01*
X119076807Y-52248226D01*
X119118686Y-52326575D01*
X119118687Y-52326579D01*
X119144475Y-52411587D01*
X119153182Y-52500000D01*
X119144475Y-52588413D01*
X119127454Y-52644521D01*
X119122673Y-52668554D01*
X119122673Y-52693058D01*
X119127453Y-52717092D01*
X119136830Y-52739731D01*
X119150444Y-52760106D01*
X119167771Y-52777433D01*
X119188146Y-52791047D01*
X119210785Y-52800424D01*
X119234818Y-52805205D01*
X119259322Y-52805205D01*
X119283356Y-52800425D01*
X119305995Y-52791048D01*
X119326370Y-52777434D01*
X119343698Y-52760106D01*
X119373632Y-52723631D01*
X119373634Y-52723629D01*
X119491791Y-52626659D01*
X119626600Y-52554602D01*
X119626602Y-52554601D01*
X119772879Y-52510229D01*
X119772882Y-52510228D01*
X119925000Y-52495246D01*
X120077119Y-52510228D01*
X120077122Y-52510229D01*
X120223399Y-52554601D01*
X120223401Y-52554602D01*
X120358210Y-52626659D01*
X120476369Y-52723631D01*
X120573341Y-52841790D01*
X120645398Y-52976599D01*
X120689772Y-53122881D01*
X120701000Y-53236882D01*
X120701000Y-53863118D01*
X120689772Y-53977119D01*
X120645398Y-54123401D01*
X120573341Y-54258210D01*
X120476369Y-54376369D01*
X120358209Y-54473341D01*
X120358207Y-54473342D01*
X120223398Y-54545399D01*
X120140099Y-54570667D01*
X120077118Y-54589772D01*
X119925000Y-54604754D01*
X119772881Y-54589772D01*
X119709900Y-54570667D01*
X119626601Y-54545399D01*
X119491792Y-54473342D01*
X119491790Y-54473341D01*
X119373631Y-54376369D01*
X119276659Y-54258209D01*
X119204602Y-54123400D01*
X119160228Y-53977118D01*
X119149000Y-53863117D01*
X119149000Y-53236882D01*
X119160228Y-53122881D01*
X119206844Y-52969208D01*
X119210345Y-52960754D01*
X119215123Y-52936721D01*
X119215121Y-52912216D01*
X119210338Y-52888183D01*
X119200959Y-52865545D01*
X119187344Y-52845172D01*
X119170015Y-52827846D01*
X119149639Y-52814234D01*
X119126999Y-52804858D01*
X119102966Y-52800080D01*
X119078461Y-52800082D01*
X119054428Y-52804865D01*
X119031790Y-52814244D01*
X119011429Y-52827850D01*
X118990313Y-52845179D01*
X118951775Y-52876807D01*
X118926735Y-52890191D01*
X118873425Y-52918686D01*
X118863456Y-52921710D01*
X118788413Y-52944475D01*
X118722158Y-52951000D01*
X118677842Y-52951000D01*
X118611587Y-52944475D01*
X118536544Y-52921710D01*
X118526575Y-52918686D01*
X118448226Y-52876807D01*
X118379552Y-52820448D01*
X118323193Y-52751774D01*
X118281314Y-52673425D01*
X118272545Y-52644518D01*
X118255525Y-52588413D01*
X118246818Y-52500000D01*
X118255525Y-52411587D01*
X118281313Y-52326579D01*
X118281314Y-52326575D01*
X118323193Y-52248226D01*
X118379552Y-52179552D01*
X118448226Y-52123193D01*
X118526575Y-52081314D01*
X118536544Y-52078290D01*
X118611587Y-52055525D01*
X118677842Y-52049000D01*
X118722158Y-52049000D01*
X118788413Y-52055525D01*
X118788413Y-52055525D01*
G37*
G36*
X113788413Y-52055525D02*
X113863456Y-52078290D01*
X113873425Y-52081314D01*
X113951774Y-52123193D01*
X114020448Y-52179552D01*
X114076807Y-52248226D01*
X114118686Y-52326575D01*
X114118687Y-52326579D01*
X114144475Y-52411587D01*
X114153182Y-52500000D01*
X114144475Y-52588413D01*
X114127455Y-52644518D01*
X114118686Y-52673425D01*
X114076807Y-52751774D01*
X114020448Y-52820448D01*
X113951774Y-52876807D01*
X113873425Y-52918686D01*
X113863456Y-52921710D01*
X113788413Y-52944475D01*
X113722158Y-52951000D01*
X113677842Y-52951000D01*
X113611587Y-52944475D01*
X113536544Y-52921710D01*
X113526575Y-52918686D01*
X113473265Y-52890191D01*
X113448225Y-52876807D01*
X113409687Y-52845179D01*
X113388571Y-52827850D01*
X113368202Y-52814239D01*
X113345563Y-52804862D01*
X113321529Y-52800081D01*
X113297025Y-52800081D01*
X113272992Y-52804861D01*
X113250352Y-52814238D01*
X113229978Y-52827852D01*
X113212650Y-52845179D01*
X113199036Y-52865553D01*
X113189659Y-52888192D01*
X113184878Y-52912226D01*
X113184878Y-52936730D01*
X113189658Y-52960763D01*
X113193157Y-52969212D01*
X113195398Y-52976599D01*
X113195399Y-52976601D01*
X113233727Y-53102953D01*
X113239772Y-53122881D01*
X113251000Y-53236882D01*
X113251000Y-53863118D01*
X113239772Y-53977119D01*
X113195398Y-54123401D01*
X113123341Y-54258210D01*
X113026369Y-54376369D01*
X112908209Y-54473341D01*
X112908207Y-54473342D01*
X112773398Y-54545399D01*
X112690099Y-54570667D01*
X112627118Y-54589772D01*
X112475000Y-54604754D01*
X112322881Y-54589772D01*
X112259900Y-54570667D01*
X112176601Y-54545399D01*
X112041792Y-54473342D01*
X112041790Y-54473341D01*
X111923631Y-54376369D01*
X111826659Y-54258209D01*
X111754602Y-54123400D01*
X111710228Y-53977118D01*
X111699000Y-53863117D01*
X111699000Y-53236882D01*
X111710228Y-53122881D01*
X111754602Y-52976599D01*
X111826660Y-52841790D01*
X111923632Y-52723631D01*
X112041791Y-52626659D01*
X112176600Y-52554602D01*
X112176602Y-52554601D01*
X112322879Y-52510229D01*
X112322882Y-52510228D01*
X112475000Y-52495246D01*
X112627119Y-52510228D01*
X112627122Y-52510229D01*
X112773399Y-52554601D01*
X112773401Y-52554602D01*
X112908210Y-52626659D01*
X112989114Y-52693056D01*
X113026367Y-52723629D01*
X113026370Y-52723632D01*
X113056304Y-52760105D01*
X113073631Y-52777432D01*
X113094006Y-52791046D01*
X113116645Y-52800423D01*
X113140678Y-52805203D01*
X113165183Y-52805203D01*
X113189216Y-52800422D01*
X113211855Y-52791044D01*
X113232229Y-52777430D01*
X113249556Y-52760103D01*
X113263170Y-52739728D01*
X113272547Y-52717089D01*
X113277327Y-52693056D01*
X113277327Y-52668551D01*
X113272547Y-52644524D01*
X113266167Y-52623489D01*
X113255525Y-52588411D01*
X113246818Y-52500000D01*
X113255525Y-52411587D01*
X113281313Y-52326579D01*
X113281314Y-52326575D01*
X113323193Y-52248226D01*
X113379552Y-52179552D01*
X113448226Y-52123193D01*
X113526575Y-52081314D01*
X113536544Y-52078290D01*
X113611587Y-52055525D01*
X113677842Y-52049000D01*
X113722158Y-52049000D01*
X113788413Y-52055525D01*
X113788413Y-52055525D01*
G37*
G36*
X117776000Y-54301000D02*
X114624000Y-54301000D01*
X114624000Y-52899000D01*
X117776000Y-52899000D01*
X117776000Y-54301000D01*
X117776000Y-54301000D01*
G37*
G36*
X146551000Y-53501000D02*
X144449000Y-53501000D01*
X144449000Y-51899000D01*
X146551000Y-51899000D01*
X146551000Y-53501000D01*
X146551000Y-53501000D01*
G37*
G36*
X134788677Y-51103465D02*
X134826364Y-51114898D01*
X134861103Y-51133466D01*
X134891548Y-51158452D01*
X134916534Y-51188897D01*
X134935102Y-51223636D01*
X134946535Y-51261323D01*
X134951000Y-51306661D01*
X134951000Y-52143339D01*
X134946535Y-52188677D01*
X134935102Y-52226364D01*
X134916534Y-52261103D01*
X134891548Y-52291548D01*
X134861103Y-52316534D01*
X134826364Y-52335102D01*
X134788677Y-52346535D01*
X134743339Y-52351000D01*
X133656661Y-52351000D01*
X133611323Y-52346535D01*
X133573636Y-52335102D01*
X133538897Y-52316534D01*
X133508452Y-52291548D01*
X133483466Y-52261103D01*
X133464898Y-52226364D01*
X133453465Y-52188677D01*
X133449000Y-52143339D01*
X133449000Y-51306661D01*
X133453465Y-51261323D01*
X133464898Y-51223636D01*
X133483466Y-51188897D01*
X133508452Y-51158452D01*
X133538897Y-51133466D01*
X133573636Y-51114898D01*
X133611323Y-51103465D01*
X133656661Y-51099000D01*
X134743339Y-51099000D01*
X134788677Y-51103465D01*
X134788677Y-51103465D01*
G37*
G36*
X124788677Y-51103465D02*
X124826364Y-51114898D01*
X124861103Y-51133466D01*
X124891548Y-51158452D01*
X124916534Y-51188897D01*
X124935102Y-51223636D01*
X124946535Y-51261323D01*
X124951000Y-51306661D01*
X124951000Y-52143339D01*
X124946535Y-52188677D01*
X124935102Y-52226364D01*
X124916534Y-52261103D01*
X124891548Y-52291548D01*
X124861103Y-52316534D01*
X124826364Y-52335102D01*
X124788677Y-52346535D01*
X124743339Y-52351000D01*
X123656661Y-52351000D01*
X123611323Y-52346535D01*
X123573636Y-52335102D01*
X123538897Y-52316534D01*
X123508452Y-52291548D01*
X123483466Y-52261103D01*
X123464898Y-52226364D01*
X123453465Y-52188677D01*
X123449000Y-52143339D01*
X123449000Y-51306661D01*
X123453465Y-51261323D01*
X123464898Y-51223636D01*
X123483466Y-51188897D01*
X123508452Y-51158452D01*
X123538897Y-51133466D01*
X123573636Y-51114898D01*
X123611323Y-51103465D01*
X123656661Y-51099000D01*
X124743339Y-51099000D01*
X124788677Y-51103465D01*
X124788677Y-51103465D01*
G37*
G36*
X154205996Y-49853051D02*
X154239653Y-49863261D01*
X154270667Y-49879838D01*
X154297852Y-49902148D01*
X154320162Y-49929333D01*
X154336739Y-49960347D01*
X154346949Y-49994004D01*
X154351000Y-50035138D01*
X154351000Y-51364862D01*
X154346949Y-51405996D01*
X154336739Y-51439653D01*
X154320162Y-51470667D01*
X154297852Y-51497852D01*
X154270667Y-51520162D01*
X154239653Y-51536739D01*
X154205996Y-51546949D01*
X154164862Y-51551000D01*
X151835138Y-51551000D01*
X151794004Y-51546949D01*
X151760347Y-51536739D01*
X151729333Y-51520162D01*
X151702148Y-51497852D01*
X151679838Y-51470667D01*
X151663261Y-51439653D01*
X151653051Y-51405996D01*
X151649000Y-51364862D01*
X151649000Y-50035138D01*
X151653051Y-49994004D01*
X151663261Y-49960347D01*
X151679838Y-49929333D01*
X151702148Y-49902148D01*
X151729333Y-49879838D01*
X151760347Y-49863261D01*
X151794004Y-49853051D01*
X151835138Y-49849000D01*
X154164862Y-49849000D01*
X154205996Y-49853051D01*
X154205996Y-49853051D01*
G37*
G36*
X150605996Y-49853051D02*
X150639653Y-49863261D01*
X150670667Y-49879838D01*
X150697852Y-49902148D01*
X150720162Y-49929333D01*
X150736739Y-49960347D01*
X150746949Y-49994004D01*
X150751000Y-50035138D01*
X150751000Y-51364862D01*
X150746949Y-51405996D01*
X150736739Y-51439653D01*
X150720162Y-51470667D01*
X150697852Y-51497852D01*
X150670667Y-51520162D01*
X150639653Y-51536739D01*
X150605996Y-51546949D01*
X150564862Y-51551000D01*
X148235138Y-51551000D01*
X148194004Y-51546949D01*
X148160347Y-51536739D01*
X148129333Y-51520162D01*
X148102148Y-51497852D01*
X148079838Y-51470667D01*
X148063261Y-51439653D01*
X148053051Y-51405996D01*
X148049000Y-51364862D01*
X148049000Y-50035138D01*
X148053051Y-49994004D01*
X148063261Y-49960347D01*
X148079838Y-49929333D01*
X148102148Y-49902148D01*
X148129333Y-49879838D01*
X148160347Y-49863261D01*
X148194004Y-49853051D01*
X148235138Y-49849000D01*
X150564862Y-49849000D01*
X150605996Y-49853051D01*
X150605996Y-49853051D01*
G37*
G36*
X146551000Y-51201000D02*
X144449000Y-51201000D01*
X144449000Y-49599000D01*
X146551000Y-49599000D01*
X146551000Y-51201000D01*
X146551000Y-51201000D01*
G37*
G36*
X129905996Y-48353051D02*
X129939653Y-48363261D01*
X129970667Y-48379838D01*
X129997852Y-48402148D01*
X130020162Y-48429333D01*
X130036739Y-48460347D01*
X130046949Y-48494004D01*
X130051000Y-48535138D01*
X130051000Y-50864862D01*
X130046949Y-50905996D01*
X130036739Y-50939653D01*
X130020162Y-50970667D01*
X129997852Y-50997852D01*
X129970667Y-51020162D01*
X129939653Y-51036739D01*
X129905996Y-51046949D01*
X129864862Y-51051000D01*
X128535138Y-51051000D01*
X128494004Y-51046949D01*
X128460347Y-51036739D01*
X128429333Y-51020162D01*
X128402148Y-50997852D01*
X128379838Y-50970667D01*
X128363261Y-50939653D01*
X128353051Y-50905996D01*
X128349000Y-50864862D01*
X128349000Y-48535138D01*
X128353051Y-48494004D01*
X128363261Y-48460347D01*
X128379838Y-48429333D01*
X128402148Y-48402148D01*
X128429333Y-48379838D01*
X128460347Y-48363261D01*
X128494004Y-48353051D01*
X128535138Y-48349000D01*
X129864862Y-48349000D01*
X129905996Y-48353051D01*
X129905996Y-48353051D01*
G37*
G36*
X175001000Y-51001000D02*
X171399000Y-51001000D01*
X171399000Y-48399000D01*
X175001000Y-48399000D01*
X175001000Y-51001000D01*
X175001000Y-51001000D01*
G37*
G36*
X112447714Y-48808058D02*
X112447717Y-48808059D01*
X112565719Y-48843854D01*
X112565721Y-48843855D01*
X112674471Y-48901983D01*
X112769790Y-48980210D01*
X112848017Y-49075529D01*
X112906145Y-49184279D01*
X112941942Y-49302286D01*
X112951000Y-49394253D01*
X112951000Y-50105747D01*
X112941942Y-50197714D01*
X112941941Y-50197716D01*
X112941941Y-50197717D01*
X112909358Y-50305131D01*
X112906145Y-50315721D01*
X112848017Y-50424471D01*
X112769793Y-50519787D01*
X112769791Y-50519788D01*
X112769790Y-50519790D01*
X112674468Y-50598018D01*
X112565718Y-50656146D01*
X112469682Y-50685278D01*
X112447713Y-50691942D01*
X112325000Y-50704028D01*
X112202286Y-50691942D01*
X112180317Y-50685278D01*
X112084281Y-50656146D01*
X111975531Y-50598018D01*
X111975529Y-50598017D01*
X111880213Y-50519793D01*
X111880212Y-50519791D01*
X111880210Y-50519790D01*
X111801982Y-50424468D01*
X111743854Y-50315718D01*
X111708059Y-50197716D01*
X111708058Y-50197713D01*
X111699000Y-50105746D01*
X111699000Y-49394253D01*
X111708058Y-49302286D01*
X111743854Y-49184281D01*
X111773554Y-49128718D01*
X111801983Y-49075531D01*
X111806754Y-49069718D01*
X111880211Y-48980210D01*
X111975530Y-48901983D01*
X112084280Y-48843855D01*
X112084282Y-48843854D01*
X112202284Y-48808059D01*
X112202287Y-48808058D01*
X112325000Y-48795972D01*
X112447714Y-48808058D01*
X112447714Y-48808058D01*
G37*
G36*
X120197714Y-48808058D02*
X120197717Y-48808059D01*
X120315719Y-48843854D01*
X120315721Y-48843855D01*
X120424471Y-48901983D01*
X120519790Y-48980210D01*
X120598017Y-49075529D01*
X120656145Y-49184279D01*
X120691942Y-49302286D01*
X120701000Y-49394253D01*
X120701000Y-50105747D01*
X120691942Y-50197714D01*
X120691941Y-50197716D01*
X120691941Y-50197717D01*
X120659358Y-50305131D01*
X120656145Y-50315721D01*
X120598017Y-50424471D01*
X120519793Y-50519787D01*
X120519791Y-50519788D01*
X120519790Y-50519790D01*
X120424468Y-50598018D01*
X120315718Y-50656146D01*
X120219682Y-50685278D01*
X120197713Y-50691942D01*
X120075000Y-50704028D01*
X119952286Y-50691942D01*
X119930317Y-50685278D01*
X119834281Y-50656146D01*
X119725531Y-50598018D01*
X119725529Y-50598017D01*
X119630213Y-50519793D01*
X119630212Y-50519791D01*
X119630210Y-50519790D01*
X119551982Y-50424468D01*
X119493854Y-50315718D01*
X119458059Y-50197716D01*
X119458058Y-50197713D01*
X119449000Y-50105746D01*
X119449000Y-49394253D01*
X119458058Y-49302286D01*
X119493854Y-49184281D01*
X119523554Y-49128718D01*
X119551983Y-49075531D01*
X119556754Y-49069718D01*
X119630211Y-48980210D01*
X119725530Y-48901983D01*
X119834280Y-48843855D01*
X119834282Y-48843854D01*
X119952284Y-48808059D01*
X119952287Y-48808058D01*
X120075000Y-48795972D01*
X120197714Y-48808058D01*
X120197714Y-48808058D01*
G37*
G36*
X167213677Y-48853465D02*
X167251364Y-48864898D01*
X167286103Y-48883466D01*
X167316548Y-48908452D01*
X167341534Y-48938897D01*
X167360102Y-48973636D01*
X167371535Y-49011323D01*
X167376000Y-49056661D01*
X167376000Y-50143339D01*
X167371535Y-50188677D01*
X167360102Y-50226364D01*
X167341534Y-50261103D01*
X167316548Y-50291548D01*
X167286103Y-50316534D01*
X167251364Y-50335102D01*
X167213677Y-50346535D01*
X167168339Y-50351000D01*
X166331661Y-50351000D01*
X166286323Y-50346535D01*
X166248636Y-50335102D01*
X166213897Y-50316534D01*
X166183452Y-50291548D01*
X166158466Y-50261103D01*
X166139898Y-50226364D01*
X166128465Y-50188677D01*
X166124000Y-50143339D01*
X166124000Y-49056661D01*
X166128465Y-49011323D01*
X166139898Y-48973636D01*
X166158466Y-48938897D01*
X166183452Y-48908452D01*
X166213897Y-48883466D01*
X166248636Y-48864898D01*
X166286323Y-48853465D01*
X166331661Y-48849000D01*
X167168339Y-48849000D01*
X167213677Y-48853465D01*
X167213677Y-48853465D01*
G37*
G36*
X169263677Y-48853465D02*
X169301364Y-48864898D01*
X169336103Y-48883466D01*
X169366548Y-48908452D01*
X169391534Y-48938897D01*
X169410102Y-48973636D01*
X169421535Y-49011323D01*
X169426000Y-49056661D01*
X169426000Y-50143339D01*
X169421535Y-50188677D01*
X169410102Y-50226364D01*
X169391534Y-50261103D01*
X169366548Y-50291548D01*
X169336103Y-50316534D01*
X169301364Y-50335102D01*
X169263677Y-50346535D01*
X169218339Y-50351000D01*
X168381661Y-50351000D01*
X168336323Y-50346535D01*
X168298636Y-50335102D01*
X168263897Y-50316534D01*
X168233452Y-50291548D01*
X168208466Y-50261103D01*
X168189898Y-50226364D01*
X168178465Y-50188677D01*
X168174000Y-50143339D01*
X168174000Y-49056661D01*
X168178465Y-49011323D01*
X168189898Y-48973636D01*
X168208466Y-48938897D01*
X168233452Y-48908452D01*
X168263897Y-48883466D01*
X168298636Y-48864898D01*
X168336323Y-48853465D01*
X168381661Y-48849000D01*
X169218339Y-48849000D01*
X169263677Y-48853465D01*
X169263677Y-48853465D01*
G37*
G36*
X134788677Y-49053465D02*
X134826364Y-49064898D01*
X134861103Y-49083466D01*
X134891548Y-49108452D01*
X134916534Y-49138897D01*
X134935102Y-49173636D01*
X134946535Y-49211323D01*
X134951000Y-49256661D01*
X134951000Y-50093339D01*
X134946535Y-50138677D01*
X134935102Y-50176364D01*
X134916534Y-50211103D01*
X134891548Y-50241548D01*
X134861103Y-50266534D01*
X134826364Y-50285102D01*
X134788677Y-50296535D01*
X134743339Y-50301000D01*
X133656661Y-50301000D01*
X133611323Y-50296535D01*
X133573636Y-50285102D01*
X133538897Y-50266534D01*
X133508452Y-50241548D01*
X133483466Y-50211103D01*
X133464898Y-50176364D01*
X133453465Y-50138677D01*
X133449000Y-50093339D01*
X133449000Y-49256661D01*
X133453465Y-49211323D01*
X133464898Y-49173636D01*
X133483466Y-49138897D01*
X133508452Y-49108452D01*
X133538897Y-49083466D01*
X133573636Y-49064898D01*
X133611323Y-49053465D01*
X133656661Y-49049000D01*
X134743339Y-49049000D01*
X134788677Y-49053465D01*
X134788677Y-49053465D01*
G37*
G36*
X124788677Y-49053465D02*
X124826364Y-49064898D01*
X124861103Y-49083466D01*
X124891548Y-49108452D01*
X124916534Y-49138897D01*
X124935102Y-49173636D01*
X124946535Y-49211323D01*
X124951000Y-49256661D01*
X124951000Y-50093339D01*
X124946535Y-50138677D01*
X124935102Y-50176364D01*
X124916534Y-50211103D01*
X124891548Y-50241548D01*
X124861103Y-50266534D01*
X124826364Y-50285102D01*
X124788677Y-50296535D01*
X124743339Y-50301000D01*
X123656661Y-50301000D01*
X123611323Y-50296535D01*
X123573636Y-50285102D01*
X123538897Y-50266534D01*
X123508452Y-50241548D01*
X123483466Y-50211103D01*
X123464898Y-50176364D01*
X123453465Y-50138677D01*
X123449000Y-50093339D01*
X123449000Y-49256661D01*
X123453465Y-49211323D01*
X123464898Y-49173636D01*
X123483466Y-49138897D01*
X123508452Y-49108452D01*
X123538897Y-49083466D01*
X123573636Y-49064898D01*
X123611323Y-49053465D01*
X123656661Y-49049000D01*
X124743339Y-49049000D01*
X124788677Y-49053465D01*
X124788677Y-49053465D01*
G37*
M02*
