G04 #@! TF.GenerationSoftware,KiCad,Pcbnew,(5.0.2)-1*
G04 #@! TF.CreationDate,2020-02-13T19:07:29+01:00*
G04 #@! TF.ProjectId,Project-ESD,50726f6a-6563-4742-9d45-53442e6b6963,rev?*
G04 #@! TF.SameCoordinates,Original*
G04 #@! TF.FileFunction,Other,User*
%FSLAX46Y46*%
G04 Gerber Fmt 4.6, Leading zero omitted, Abs format (unit mm)*
G04 Created by KiCad (PCBNEW (5.0.2)-1) date 2020-02-13 19:07:29*
%MOMM*%
%LPD*%
G01*
G04 APERTURE LIST*
%ADD10C,0.400000*%
%ADD11C,0.050000*%
G04 APERTURE END LIST*
D10*
G04 #@! TO.C,U2*
X161810000Y-78580000D02*
G75*
G03X161810000Y-78580000I-200000J0D01*
G01*
D11*
X147700000Y-79250000D02*
X147700000Y-67150000D01*
X160700000Y-79250000D02*
X147700000Y-79250000D01*
X160700000Y-67150000D02*
X160700000Y-79250000D01*
X160700000Y-67150000D02*
X147700000Y-67150000D01*
G04 #@! TO.C,C1*
X123250000Y-48850000D02*
X125150000Y-48850000D01*
X125150000Y-48850000D02*
X125150000Y-52550000D01*
X125150000Y-52550000D02*
X123250000Y-52550000D01*
X123250000Y-52550000D02*
X123250000Y-48850000D01*
G04 #@! TO.C,C2*
X131600000Y-53900000D02*
X130250000Y-53900000D01*
X130250000Y-53900000D02*
X130250000Y-54850000D01*
X130250000Y-54850000D02*
X128150000Y-54850000D01*
X128150000Y-54850000D02*
X128150000Y-53900000D01*
X128150000Y-53900000D02*
X126800000Y-53900000D01*
X126800000Y-50250000D02*
X126800000Y-53900000D01*
X131600000Y-50250000D02*
X131600000Y-53900000D01*
X127950000Y-49100000D02*
X126800000Y-50250000D01*
X130450000Y-49100000D02*
X131600000Y-50250000D01*
X130450000Y-49100000D02*
X130250000Y-49100000D01*
X128150000Y-49100000D02*
X127950000Y-49100000D01*
X130250000Y-49100000D02*
X130250000Y-48150000D01*
X130250000Y-48150000D02*
X128150000Y-48150000D01*
X128150000Y-48150000D02*
X128150000Y-49100000D01*
G04 #@! TO.C,C3*
X133250000Y-48850000D02*
X135150000Y-48850000D01*
X135150000Y-48850000D02*
X135150000Y-52550000D01*
X135150000Y-52550000D02*
X133250000Y-52550000D01*
X133250000Y-52550000D02*
X133250000Y-48850000D01*
G04 #@! TO.C,C4*
X153075000Y-56650000D02*
X149375000Y-56650000D01*
X153075000Y-54750000D02*
X153075000Y-56650000D01*
X149375000Y-54750000D02*
X153075000Y-54750000D01*
X149375000Y-56650000D02*
X149375000Y-54750000D01*
G04 #@! TO.C,C5*
X147850000Y-51750000D02*
X148800000Y-51750000D01*
X147850000Y-49650000D02*
X147850000Y-51750000D01*
X148800000Y-49650000D02*
X147850000Y-49650000D01*
X148800000Y-51750000D02*
X148800000Y-51950000D01*
X148800000Y-49450000D02*
X148800000Y-49650000D01*
X148800000Y-49450000D02*
X149950000Y-48300000D01*
X148800000Y-51950000D02*
X149950000Y-53100000D01*
X149950000Y-48300000D02*
X153600000Y-48300000D01*
X149950000Y-53100000D02*
X153600000Y-53100000D01*
X153600000Y-51750000D02*
X153600000Y-53100000D01*
X154550000Y-51750000D02*
X153600000Y-51750000D01*
X154550000Y-49650000D02*
X154550000Y-51750000D01*
X153600000Y-49650000D02*
X154550000Y-49650000D01*
X153600000Y-48300000D02*
X153600000Y-49650000D01*
G04 #@! TO.C,C6*
X166375000Y-70650000D02*
X166375000Y-68750000D01*
X166375000Y-68750000D02*
X170075000Y-68750000D01*
X170075000Y-68750000D02*
X170075000Y-70650000D01*
X170075000Y-70650000D02*
X166375000Y-70650000D01*
G04 #@! TO.C,C7*
X140550000Y-62250000D02*
X142450000Y-62250000D01*
X142450000Y-62250000D02*
X142450000Y-65950000D01*
X142450000Y-65950000D02*
X140550000Y-65950000D01*
X140550000Y-65950000D02*
X140550000Y-62250000D01*
G04 #@! TO.C,C8*
X140347803Y-68769008D02*
X142247803Y-68769008D01*
X142247803Y-68769008D02*
X142247803Y-72469008D01*
X142247803Y-72469008D02*
X140347803Y-72469008D01*
X140347803Y-72469008D02*
X140347803Y-68769008D01*
G04 #@! TO.C,C9*
X170050000Y-72650000D02*
X166350000Y-72650000D01*
X170050000Y-70750000D02*
X170050000Y-72650000D01*
X166350000Y-70750000D02*
X170050000Y-70750000D01*
X166350000Y-72650000D02*
X166350000Y-70750000D01*
G04 #@! TO.C,C10*
X170025000Y-78650000D02*
X166325000Y-78650000D01*
X170025000Y-76750000D02*
X170025000Y-78650000D01*
X166325000Y-76750000D02*
X170025000Y-76750000D01*
X166325000Y-78650000D02*
X166325000Y-76750000D01*
G04 #@! TO.C,C11*
X170025000Y-76650000D02*
X166325000Y-76650000D01*
X170025000Y-74750000D02*
X170025000Y-76650000D01*
X166325000Y-74750000D02*
X170025000Y-74750000D01*
X166325000Y-76650000D02*
X166325000Y-74750000D01*
G04 #@! TO.C,C12*
X166375000Y-74650000D02*
X166375000Y-72750000D01*
X166375000Y-72750000D02*
X170075000Y-72750000D01*
X170075000Y-72750000D02*
X170075000Y-74650000D01*
X170075000Y-74650000D02*
X166375000Y-74650000D01*
G04 #@! TO.C,C13*
X140350000Y-77775000D02*
X140350000Y-74075000D01*
X142250000Y-77775000D02*
X140350000Y-77775000D01*
X142250000Y-74075000D02*
X142250000Y-77775000D01*
X140350000Y-74075000D02*
X142250000Y-74075000D01*
G04 #@! TO.C,C14*
X136422803Y-70594008D02*
X136422803Y-68694008D01*
X136422803Y-68694008D02*
X140122803Y-68694008D01*
X140122803Y-68694008D02*
X140122803Y-70594008D01*
X140122803Y-70594008D02*
X136422803Y-70594008D01*
G04 #@! TO.C,C15*
X134347803Y-72494008D02*
X134347803Y-68794008D01*
X136247803Y-72494008D02*
X134347803Y-72494008D01*
X136247803Y-68794008D02*
X136247803Y-72494008D01*
X134347803Y-68794008D02*
X136247803Y-68794008D01*
G04 #@! TO.C,D1*
X130637500Y-81780000D02*
X130637500Y-84020000D01*
X130637500Y-84020000D02*
X125737500Y-84020000D01*
X125737500Y-84020000D02*
X125737500Y-81780000D01*
X125737500Y-81780000D02*
X130637500Y-81780000D01*
G04 #@! TO.C,D2*
X123662500Y-84020000D02*
X118762500Y-84020000D01*
X123662500Y-81780000D02*
X123662500Y-84020000D01*
X118762500Y-81780000D02*
X123662500Y-81780000D01*
X118762500Y-84020000D02*
X118762500Y-81780000D01*
G04 #@! TO.C,D3*
X145750000Y-94580000D02*
X150650000Y-94580000D01*
X145750000Y-96820000D02*
X145750000Y-94580000D01*
X150650000Y-96820000D02*
X145750000Y-96820000D01*
X150650000Y-94580000D02*
X150650000Y-96820000D01*
G04 #@! TO.C,D4*
X150650000Y-107580000D02*
X150650000Y-109820000D01*
X150650000Y-109820000D02*
X145750000Y-109820000D01*
X145750000Y-109820000D02*
X145750000Y-107580000D01*
X145750000Y-107580000D02*
X150650000Y-107580000D01*
G04 #@! TO.C,D5*
X150650000Y-120580000D02*
X150650000Y-122820000D01*
X150650000Y-122820000D02*
X145750000Y-122820000D01*
X145750000Y-122820000D02*
X145750000Y-120580000D01*
X145750000Y-120580000D02*
X150650000Y-120580000D01*
G04 #@! TO.C,D6*
X150650000Y-133580000D02*
X150650000Y-135820000D01*
X150650000Y-135820000D02*
X145750000Y-135820000D01*
X145750000Y-135820000D02*
X145750000Y-133580000D01*
X145750000Y-133580000D02*
X150650000Y-133580000D01*
G04 #@! TO.C,D7*
X163650000Y-94580000D02*
X163650000Y-96820000D01*
X163650000Y-96820000D02*
X158750000Y-96820000D01*
X158750000Y-96820000D02*
X158750000Y-94580000D01*
X158750000Y-94580000D02*
X163650000Y-94580000D01*
G04 #@! TO.C,D8*
X163650000Y-107580000D02*
X163650000Y-109820000D01*
X163650000Y-109820000D02*
X158750000Y-109820000D01*
X158750000Y-109820000D02*
X158750000Y-107580000D01*
X158750000Y-107580000D02*
X163650000Y-107580000D01*
G04 #@! TO.C,D9*
X163650000Y-120580000D02*
X163650000Y-122820000D01*
X163650000Y-122820000D02*
X158750000Y-122820000D01*
X158750000Y-122820000D02*
X158750000Y-120580000D01*
X158750000Y-120580000D02*
X163650000Y-120580000D01*
G04 #@! TO.C,D10*
X158750000Y-133580000D02*
X163650000Y-133580000D01*
X158750000Y-135820000D02*
X158750000Y-133580000D01*
X163650000Y-135820000D02*
X158750000Y-135820000D01*
X163650000Y-133580000D02*
X163650000Y-135820000D01*
G04 #@! TO.C,D11*
X171750000Y-94580000D02*
X176650000Y-94580000D01*
X171750000Y-96820000D02*
X171750000Y-94580000D01*
X176650000Y-96820000D02*
X171750000Y-96820000D01*
X176650000Y-94580000D02*
X176650000Y-96820000D01*
G04 #@! TO.C,D12*
X171750000Y-107580000D02*
X176650000Y-107580000D01*
X171750000Y-109820000D02*
X171750000Y-107580000D01*
X176650000Y-109820000D02*
X171750000Y-109820000D01*
X176650000Y-107580000D02*
X176650000Y-109820000D01*
G04 #@! TO.C,D13*
X171750000Y-120580000D02*
X176650000Y-120580000D01*
X171750000Y-122820000D02*
X171750000Y-120580000D01*
X176650000Y-122820000D02*
X171750000Y-122820000D01*
X176650000Y-120580000D02*
X176650000Y-122820000D01*
G04 #@! TO.C,D14*
X171750000Y-133580000D02*
X176650000Y-133580000D01*
X171750000Y-135820000D02*
X171750000Y-133580000D01*
X176650000Y-135820000D02*
X171750000Y-135820000D01*
X176650000Y-133580000D02*
X176650000Y-135820000D01*
G04 #@! TO.C,J1*
X121140000Y-55040000D02*
X121140000Y-46850000D01*
X121140000Y-46850000D02*
X111250000Y-46850000D01*
X111250000Y-46850000D02*
X111250000Y-55040000D01*
X111250000Y-55040000D02*
X121140000Y-55040000D01*
G04 #@! TO.C,J2*
X111750000Y-58850000D02*
X111750000Y-72550000D01*
X111750000Y-72550000D02*
X118650000Y-72550000D01*
X118650000Y-72550000D02*
X118650000Y-58850000D01*
X118650000Y-58850000D02*
X111750000Y-58850000D01*
G04 #@! TO.C,J4*
X124510992Y-72119008D02*
X129510992Y-72119008D01*
X129510992Y-72119008D02*
X129510992Y-67119008D01*
X129510992Y-67119008D02*
X124510992Y-67119008D01*
X124510992Y-67119008D02*
X124510992Y-72119008D01*
G04 #@! TO.C,J5*
X115450000Y-94965000D02*
X134250000Y-94965000D01*
X134250000Y-94965000D02*
X134250000Y-88065000D01*
X134250000Y-88065000D02*
X115450000Y-88065000D01*
X115450000Y-88065000D02*
X115450000Y-94965000D01*
G04 #@! TO.C,R1*
X142025000Y-59650000D02*
X138325000Y-59650000D01*
X142025000Y-57750000D02*
X142025000Y-59650000D01*
X138325000Y-57750000D02*
X142025000Y-57750000D01*
X138325000Y-59650000D02*
X138325000Y-57750000D01*
G04 #@! TO.C,R2*
X143325000Y-59650000D02*
X143325000Y-57750000D01*
X143325000Y-57750000D02*
X147025000Y-57750000D01*
X147025000Y-57750000D02*
X147025000Y-59650000D01*
X147025000Y-59650000D02*
X143325000Y-59650000D01*
G04 #@! TO.C,R3*
X154450000Y-85150000D02*
X154450000Y-81450000D01*
X156350000Y-85150000D02*
X154450000Y-85150000D01*
X156350000Y-81450000D02*
X156350000Y-85150000D01*
X154450000Y-81450000D02*
X156350000Y-81450000D01*
G04 #@! TO.C,R4*
X165925000Y-48650000D02*
X169625000Y-48650000D01*
X165925000Y-50550000D02*
X165925000Y-48650000D01*
X169625000Y-50550000D02*
X165925000Y-50550000D01*
X169625000Y-48650000D02*
X169625000Y-50550000D01*
G04 #@! TO.C,R5*
X127650000Y-80775000D02*
X125750000Y-80775000D01*
X125750000Y-80775000D02*
X125750000Y-77075000D01*
X125750000Y-77075000D02*
X127650000Y-77075000D01*
X127650000Y-77075000D02*
X127650000Y-80775000D01*
G04 #@! TO.C,R6*
X123650000Y-77025000D02*
X123650000Y-80725000D01*
X121750000Y-77025000D02*
X123650000Y-77025000D01*
X121750000Y-80725000D02*
X121750000Y-77025000D01*
X123650000Y-80725000D02*
X121750000Y-80725000D01*
G04 #@! TO.C,SW1*
X129950000Y-61700000D02*
X139250000Y-61700000D01*
X129950000Y-66700000D02*
X129950000Y-61700000D01*
X139250000Y-66700000D02*
X129950000Y-66700000D01*
X139250000Y-61700000D02*
X139250000Y-66700000D01*
G04 #@! TO.C,SW2*
X152850000Y-89200000D02*
X152850000Y-94200000D01*
X152850000Y-94200000D02*
X143550000Y-94200000D01*
X143550000Y-94200000D02*
X143550000Y-89200000D01*
X143550000Y-89200000D02*
X152850000Y-89200000D01*
G04 #@! TO.C,SW3*
X143550000Y-102200000D02*
X152850000Y-102200000D01*
X143550000Y-107200000D02*
X143550000Y-102200000D01*
X152850000Y-107200000D02*
X143550000Y-107200000D01*
X152850000Y-102200000D02*
X152850000Y-107200000D01*
G04 #@! TO.C,SW4*
X143550000Y-115200000D02*
X152850000Y-115200000D01*
X143550000Y-120200000D02*
X143550000Y-115200000D01*
X152850000Y-120200000D02*
X143550000Y-120200000D01*
X152850000Y-115200000D02*
X152850000Y-120200000D01*
G04 #@! TO.C,SW5*
X152850000Y-128200000D02*
X152850000Y-133200000D01*
X152850000Y-133200000D02*
X143550000Y-133200000D01*
X143550000Y-133200000D02*
X143550000Y-128200000D01*
X143550000Y-128200000D02*
X152850000Y-128200000D01*
G04 #@! TO.C,SW6*
X156550000Y-89200000D02*
X165850000Y-89200000D01*
X156550000Y-94200000D02*
X156550000Y-89200000D01*
X165850000Y-94200000D02*
X156550000Y-94200000D01*
X165850000Y-89200000D02*
X165850000Y-94200000D01*
G04 #@! TO.C,SW7*
X165850000Y-102200000D02*
X165850000Y-107200000D01*
X165850000Y-107200000D02*
X156550000Y-107200000D01*
X156550000Y-107200000D02*
X156550000Y-102200000D01*
X156550000Y-102200000D02*
X165850000Y-102200000D01*
G04 #@! TO.C,SW8*
X156550000Y-115200000D02*
X165850000Y-115200000D01*
X156550000Y-120200000D02*
X156550000Y-115200000D01*
X165850000Y-120200000D02*
X156550000Y-120200000D01*
X165850000Y-115200000D02*
X165850000Y-120200000D01*
G04 #@! TO.C,SW9*
X156550000Y-128200000D02*
X165850000Y-128200000D01*
X156550000Y-133200000D02*
X156550000Y-128200000D01*
X165850000Y-133200000D02*
X156550000Y-133200000D01*
X165850000Y-128200000D02*
X165850000Y-133200000D01*
G04 #@! TO.C,SW10*
X178850000Y-89200000D02*
X178850000Y-94200000D01*
X178850000Y-94200000D02*
X169550000Y-94200000D01*
X169550000Y-94200000D02*
X169550000Y-89200000D01*
X169550000Y-89200000D02*
X178850000Y-89200000D01*
G04 #@! TO.C,SW11*
X178850000Y-102200000D02*
X178850000Y-107200000D01*
X178850000Y-107200000D02*
X169550000Y-107200000D01*
X169550000Y-107200000D02*
X169550000Y-102200000D01*
X169550000Y-102200000D02*
X178850000Y-102200000D01*
G04 #@! TO.C,SW12*
X178850000Y-115200000D02*
X178850000Y-120200000D01*
X178850000Y-120200000D02*
X169550000Y-120200000D01*
X169550000Y-120200000D02*
X169550000Y-115200000D01*
X169550000Y-115200000D02*
X178850000Y-115200000D01*
G04 #@! TO.C,SW13*
X178850000Y-128200000D02*
X178850000Y-133200000D01*
X178850000Y-133200000D02*
X169550000Y-133200000D01*
X169550000Y-133200000D02*
X169550000Y-128200000D01*
X169550000Y-128200000D02*
X178850000Y-128200000D01*
G04 #@! TO.C,U1*
X137950000Y-56300000D02*
X146750000Y-56300000D01*
X137950000Y-49100000D02*
X137950000Y-56300000D01*
X146750000Y-49100000D02*
X137950000Y-49100000D01*
X146750000Y-56300000D02*
X146750000Y-49100000D01*
G04 #@! TO.C,J3*
X155650000Y-52450000D02*
X159150000Y-52450000D01*
X155650000Y-57350000D02*
X155650000Y-52450000D01*
X159150000Y-57350000D02*
X155650000Y-57350000D01*
X159150000Y-52450000D02*
X159150000Y-57350000D01*
G04 #@! TO.C,J6*
X162850000Y-52425000D02*
X162850000Y-57325000D01*
X162850000Y-57325000D02*
X159350000Y-57325000D01*
X159350000Y-57325000D02*
X159350000Y-52425000D01*
X159350000Y-52425000D02*
X162850000Y-52425000D01*
G04 #@! TD*
M02*
