G04 #@! TF.GenerationSoftware,KiCad,Pcbnew,(5.0.2)-1*
G04 #@! TF.CreationDate,2020-02-13T19:07:29+01:00*
G04 #@! TF.ProjectId,Project-ESD,50726f6a-6563-4742-9d45-53442e6b6963,rev?*
G04 #@! TF.SameCoordinates,Original*
G04 #@! TF.FileFunction,Soldermask,Bot*
G04 #@! TF.FilePolarity,Negative*
%FSLAX46Y46*%
G04 Gerber Fmt 4.6, Leading zero omitted, Abs format (unit mm)*
G04 Created by KiCad (PCBNEW (5.0.2)-1) date 2020-02-13 19:07:29*
%MOMM*%
%LPD*%
G01*
G04 APERTURE LIST*
%ADD10C,0.100000*%
G04 APERTURE END LIST*
D10*
G36*
X113788413Y-52055525D02*
X113863456Y-52078290D01*
X113873425Y-52081314D01*
X113951774Y-52123193D01*
X114020448Y-52179552D01*
X114076807Y-52248226D01*
X114118686Y-52326575D01*
X114118687Y-52326579D01*
X114144475Y-52411587D01*
X114153182Y-52500000D01*
X114144475Y-52588413D01*
X114127455Y-52644518D01*
X114118686Y-52673425D01*
X114076807Y-52751774D01*
X114020448Y-52820448D01*
X113951774Y-52876807D01*
X113873425Y-52918686D01*
X113863456Y-52921710D01*
X113788413Y-52944475D01*
X113722158Y-52951000D01*
X113677842Y-52951000D01*
X113611587Y-52944475D01*
X113536544Y-52921710D01*
X113526575Y-52918686D01*
X113473265Y-52890191D01*
X113448225Y-52876807D01*
X113409687Y-52845179D01*
X113388571Y-52827850D01*
X113368202Y-52814239D01*
X113345563Y-52804862D01*
X113321529Y-52800081D01*
X113297025Y-52800081D01*
X113272992Y-52804861D01*
X113250352Y-52814238D01*
X113229978Y-52827852D01*
X113212650Y-52845179D01*
X113199036Y-52865553D01*
X113189659Y-52888192D01*
X113184878Y-52912226D01*
X113184878Y-52936730D01*
X113189658Y-52960763D01*
X113193157Y-52969212D01*
X113195398Y-52976599D01*
X113195399Y-52976601D01*
X113233727Y-53102953D01*
X113239772Y-53122881D01*
X113251000Y-53236882D01*
X113251000Y-53863118D01*
X113239772Y-53977119D01*
X113195398Y-54123401D01*
X113123341Y-54258210D01*
X113026369Y-54376369D01*
X112908209Y-54473341D01*
X112908207Y-54473342D01*
X112773398Y-54545399D01*
X112654351Y-54581511D01*
X112627118Y-54589772D01*
X112475000Y-54604754D01*
X112322881Y-54589772D01*
X112295648Y-54581511D01*
X112176601Y-54545399D01*
X112041792Y-54473342D01*
X112041790Y-54473341D01*
X111923631Y-54376369D01*
X111826659Y-54258209D01*
X111754602Y-54123400D01*
X111710228Y-53977118D01*
X111699000Y-53863117D01*
X111699000Y-53236882D01*
X111710228Y-53122881D01*
X111754602Y-52976599D01*
X111826660Y-52841790D01*
X111923632Y-52723631D01*
X112041791Y-52626659D01*
X112176600Y-52554602D01*
X112176602Y-52554601D01*
X112322879Y-52510229D01*
X112322882Y-52510228D01*
X112475000Y-52495246D01*
X112627119Y-52510228D01*
X112627122Y-52510229D01*
X112773399Y-52554601D01*
X112773401Y-52554602D01*
X112908210Y-52626659D01*
X112989114Y-52693056D01*
X113026367Y-52723629D01*
X113026370Y-52723632D01*
X113056304Y-52760105D01*
X113073631Y-52777432D01*
X113094006Y-52791046D01*
X113116645Y-52800423D01*
X113140678Y-52805203D01*
X113165183Y-52805203D01*
X113189216Y-52800422D01*
X113211855Y-52791044D01*
X113232229Y-52777430D01*
X113249556Y-52760103D01*
X113263170Y-52739728D01*
X113272547Y-52717089D01*
X113277327Y-52693056D01*
X113277327Y-52668551D01*
X113272547Y-52644524D01*
X113266167Y-52623489D01*
X113255525Y-52588411D01*
X113246818Y-52500000D01*
X113255525Y-52411587D01*
X113281313Y-52326579D01*
X113281314Y-52326575D01*
X113323193Y-52248226D01*
X113379552Y-52179552D01*
X113448226Y-52123193D01*
X113526575Y-52081314D01*
X113536544Y-52078290D01*
X113611587Y-52055525D01*
X113677842Y-52049000D01*
X113722158Y-52049000D01*
X113788413Y-52055525D01*
X113788413Y-52055525D01*
G37*
G36*
X118788413Y-52055525D02*
X118863456Y-52078290D01*
X118873425Y-52081314D01*
X118951774Y-52123193D01*
X119020448Y-52179552D01*
X119076807Y-52248226D01*
X119118686Y-52326575D01*
X119118687Y-52326579D01*
X119144475Y-52411587D01*
X119153182Y-52500000D01*
X119144475Y-52588413D01*
X119127454Y-52644521D01*
X119122673Y-52668554D01*
X119122673Y-52693058D01*
X119127453Y-52717092D01*
X119136830Y-52739731D01*
X119150444Y-52760106D01*
X119167771Y-52777433D01*
X119188146Y-52791047D01*
X119210785Y-52800424D01*
X119234818Y-52805205D01*
X119259322Y-52805205D01*
X119283356Y-52800425D01*
X119305995Y-52791048D01*
X119326370Y-52777434D01*
X119343698Y-52760106D01*
X119373632Y-52723631D01*
X119373634Y-52723629D01*
X119491791Y-52626659D01*
X119626600Y-52554602D01*
X119626602Y-52554601D01*
X119772879Y-52510229D01*
X119772882Y-52510228D01*
X119925000Y-52495246D01*
X120077119Y-52510228D01*
X120077122Y-52510229D01*
X120223399Y-52554601D01*
X120223401Y-52554602D01*
X120358210Y-52626659D01*
X120476369Y-52723631D01*
X120573341Y-52841790D01*
X120645398Y-52976599D01*
X120689772Y-53122881D01*
X120701000Y-53236882D01*
X120701000Y-53863118D01*
X120689772Y-53977119D01*
X120645398Y-54123401D01*
X120573341Y-54258210D01*
X120476369Y-54376369D01*
X120358209Y-54473341D01*
X120358207Y-54473342D01*
X120223398Y-54545399D01*
X120104351Y-54581511D01*
X120077118Y-54589772D01*
X119925000Y-54604754D01*
X119772881Y-54589772D01*
X119745648Y-54581511D01*
X119626601Y-54545399D01*
X119491792Y-54473342D01*
X119491790Y-54473341D01*
X119373631Y-54376369D01*
X119276659Y-54258209D01*
X119204602Y-54123400D01*
X119160228Y-53977118D01*
X119149000Y-53863117D01*
X119149000Y-53236882D01*
X119160228Y-53122881D01*
X119206844Y-52969208D01*
X119210345Y-52960754D01*
X119215123Y-52936721D01*
X119215121Y-52912216D01*
X119210338Y-52888183D01*
X119200959Y-52865545D01*
X119187344Y-52845172D01*
X119170015Y-52827846D01*
X119149639Y-52814234D01*
X119126999Y-52804858D01*
X119102966Y-52800080D01*
X119078461Y-52800082D01*
X119054428Y-52804865D01*
X119031790Y-52814244D01*
X119011429Y-52827850D01*
X118990313Y-52845179D01*
X118951775Y-52876807D01*
X118926735Y-52890191D01*
X118873425Y-52918686D01*
X118863456Y-52921710D01*
X118788413Y-52944475D01*
X118722158Y-52951000D01*
X118677842Y-52951000D01*
X118611587Y-52944475D01*
X118536544Y-52921710D01*
X118526575Y-52918686D01*
X118448226Y-52876807D01*
X118379552Y-52820448D01*
X118323193Y-52751774D01*
X118281314Y-52673425D01*
X118272545Y-52644518D01*
X118255525Y-52588413D01*
X118246818Y-52500000D01*
X118255525Y-52411587D01*
X118281313Y-52326579D01*
X118281314Y-52326575D01*
X118323193Y-52248226D01*
X118379552Y-52179552D01*
X118448226Y-52123193D01*
X118526575Y-52081314D01*
X118536544Y-52078290D01*
X118611587Y-52055525D01*
X118677842Y-52049000D01*
X118722158Y-52049000D01*
X118788413Y-52055525D01*
X118788413Y-52055525D01*
G37*
G36*
X112447714Y-48808058D02*
X112447717Y-48808059D01*
X112565719Y-48843854D01*
X112565721Y-48843855D01*
X112674471Y-48901983D01*
X112769790Y-48980210D01*
X112848017Y-49075529D01*
X112906145Y-49184279D01*
X112941942Y-49302286D01*
X112951000Y-49394253D01*
X112951000Y-50105747D01*
X112941942Y-50197714D01*
X112906145Y-50315721D01*
X112848017Y-50424471D01*
X112769793Y-50519787D01*
X112769791Y-50519788D01*
X112769790Y-50519790D01*
X112674468Y-50598018D01*
X112565718Y-50656146D01*
X112469682Y-50685278D01*
X112447713Y-50691942D01*
X112325000Y-50704028D01*
X112202286Y-50691942D01*
X112180317Y-50685278D01*
X112084281Y-50656146D01*
X111975531Y-50598018D01*
X111975529Y-50598017D01*
X111880213Y-50519793D01*
X111880212Y-50519791D01*
X111880210Y-50519790D01*
X111801982Y-50424468D01*
X111743854Y-50315718D01*
X111708059Y-50197716D01*
X111708058Y-50197713D01*
X111699000Y-50105746D01*
X111699000Y-49394253D01*
X111708058Y-49302286D01*
X111743854Y-49184281D01*
X111743855Y-49184279D01*
X111801983Y-49075531D01*
X111880211Y-48980210D01*
X111975530Y-48901983D01*
X112084280Y-48843855D01*
X112084282Y-48843854D01*
X112202284Y-48808059D01*
X112202287Y-48808058D01*
X112325000Y-48795972D01*
X112447714Y-48808058D01*
X112447714Y-48808058D01*
G37*
G36*
X120197714Y-48808058D02*
X120197717Y-48808059D01*
X120315719Y-48843854D01*
X120315721Y-48843855D01*
X120424471Y-48901983D01*
X120519790Y-48980210D01*
X120598017Y-49075529D01*
X120656145Y-49184279D01*
X120691942Y-49302286D01*
X120701000Y-49394253D01*
X120701000Y-50105747D01*
X120691942Y-50197714D01*
X120656145Y-50315721D01*
X120598017Y-50424471D01*
X120519793Y-50519787D01*
X120519791Y-50519788D01*
X120519790Y-50519790D01*
X120424468Y-50598018D01*
X120315718Y-50656146D01*
X120219682Y-50685278D01*
X120197713Y-50691942D01*
X120075000Y-50704028D01*
X119952286Y-50691942D01*
X119930317Y-50685278D01*
X119834281Y-50656146D01*
X119725531Y-50598018D01*
X119725529Y-50598017D01*
X119630213Y-50519793D01*
X119630212Y-50519791D01*
X119630210Y-50519790D01*
X119551982Y-50424468D01*
X119493854Y-50315718D01*
X119458059Y-50197716D01*
X119458058Y-50197713D01*
X119449000Y-50105746D01*
X119449000Y-49394253D01*
X119458058Y-49302286D01*
X119493854Y-49184281D01*
X119493855Y-49184279D01*
X119551983Y-49075531D01*
X119630211Y-48980210D01*
X119725530Y-48901983D01*
X119834280Y-48843855D01*
X119834282Y-48843854D01*
X119952284Y-48808059D01*
X119952287Y-48808058D01*
X120075000Y-48795972D01*
X120197714Y-48808058D01*
X120197714Y-48808058D01*
G37*
M02*
