M48
;DRILL file {KiCad (5.0.2)-1} date 2020-02-13 18:49:36
;FORMAT={-:-/ absolute / metric / decimal}
FMAT,2
METRIC,TZ
T1C0.400
T2C0.550
T3C0.850
T4C2.000
%
G90
G05
T1
X114.1Y-57.4
X114.7Y-84.
X115.6Y-77.
X115.8Y-80.6
X118.2Y-124.3
X118.3Y-122.9
X118.3Y-125.7
X118.3Y-126.8
X118.3Y-127.8
X118.3Y-129.
X118.3Y-130.
X119.34Y-122.9
X119.34Y-126.8
X119.34Y-130.
X119.6Y-57.8
X120.Y-77.2
X120.1Y-68.2
X120.1Y-86.4
X120.38Y-122.9
X120.38Y-126.8
X120.38Y-130.
X121.42Y-122.9
X121.42Y-126.8
X121.42Y-130.
X121.5Y-65.9
X121.5Y-65.9
X121.5Y-65.9
X122.46Y-122.9
X122.46Y-130.
X123.5Y-122.9
X123.5Y-130.
X123.9Y-69.5
X124.3Y-65.4
X125.8Y-55.1
X126.2Y-63.8
X126.9Y-130.4
X127.4Y-87.
X127.4Y-129.3
X127.5Y-57.3
X127.9Y-128.1
X128.3Y-126.9
X128.7Y-65.5
X128.8Y-125.6
X129.2Y-124.2
X129.5Y-126.9
X129.6Y-122.9
X130.5Y-122.
X130.6Y-126.9
X131.Y-57.
X131.3Y-122.9
X131.75Y-126.9
X131.9Y-124.2
X132.4Y-76.
X132.4Y-125.7
X132.9Y-126.9
X133.4Y-128.2
X133.8Y-55.1
X134.Y-129.3
X134.2Y-85.9
X134.4Y-68.
X134.5Y-130.4
X136.9Y-81.1
X138.4Y-74.
X139.7Y-78.4
X139.7Y-120.4
X140.1Y-126.7
X140.2Y-132.3
X141.1Y-112.7
X141.9Y-105.2
X143.1Y-75.4
X143.4Y-67.5
X144.Y-63.
X144.5Y-123.9
X144.6Y-82.7
X145.Y-78.8
X145.1Y-65.1
X145.1Y-75.9
X145.1Y-112.4
X147.Y-83.2
X147.7Y-80.8
X147.9Y-56.
X148.1Y-60.8
X148.2Y-63.9
X148.8Y-127.5
X148.963Y-101.4
X148.963Y-106.3
X148.963Y-114.4
X148.963Y-119.3
X148.963Y-132.5
X149.7Y-82.5
X150.Y-70.4
X150.Y-73.3
X150.Y-75.7
X150.412Y-106.3
X150.412Y-119.3
X150.412Y-132.5
X151.7Y-101.5
X151.7Y-114.4
X151.7Y-127.5
X152.125Y-82.9
X152.449Y-60.951
X152.5Y-63.5
X152.9Y-85.8
X153.3Y-61.875
X153.768Y-63.576
X154.149Y-62.651
X154.2Y-69.2
X154.5Y-55.7
X154.7Y-64.8
X154.8Y-89.2
X154.8Y-92.1
X155.Y-58.4
X155.Y-134.1
X155.975Y-64.815
X156.898Y-65.2
X157.9Y-60.6
X158.4Y-76.
X158.4Y-83.7
X158.5Y-72.8
X159.Y-50.
X160.2Y-60.9
X160.5Y-59.2
X160.5Y-82.5
X161.093Y-87.293
X161.6Y-114.1
X161.8Y-88.
X161.8Y-101.6
X161.898Y-60.175
X161.9Y-106.5
X161.9Y-127.6
X161.963Y-119.5
X161.963Y-132.4
X163.412Y-106.5
X163.412Y-119.5
X163.412Y-132.4
X163.5Y-81.7
X164.5Y-58.8
X164.574Y-49.626
X164.624Y-79.024
X164.7Y-101.6
X164.8Y-114.1
X164.8Y-127.6
X165.3Y-77.2
X166.6Y-83.9
X167.3Y-92.7
X169.1Y-86.7
X169.6Y-81.1
X170.3Y-53.9
X170.3Y-60.1
X172.7Y-80.2
X172.8Y-75.9
X174.1Y-56.8
X174.5Y-83.1
X174.7Y-114.4
X174.963Y-101.6
X174.963Y-106.4
X174.963Y-119.3
X174.963Y-127.4
X174.963Y-132.4
X176.412Y-106.4
X176.412Y-119.3
X176.412Y-132.4
X177.7Y-111.5
X177.8Y-53.9
X177.8Y-60.1
X177.8Y-101.6
X177.8Y-114.4
X177.9Y-127.4
X178.2Y-69.9
X178.9Y-135.5
T4
X113.2Y-92.2
X113.2Y-116.
X136.5Y-92.2
X136.5Y-116.
T2
X112.325Y-50.075G85X112.325Y-49.425
G05
X120.075Y-50.075G85X120.075Y-49.425
G05
T3
X112.475Y-53.825G85X112.475Y-53.275
G05
X119.925Y-53.825G85X119.925Y-53.275
G05
T0
M30
